<?xml version="1.0" encoding="utf-8"?>
<!-- Generator: Adobe Illustrator 18.1.0, SVG Export Plug-In . SVG Version: 6.00 Build 0)  -->
<!DOCTYPE svg PUBLIC "-//W3C//DTD SVG 1.1//EN" "http://www.w3.org/Graphics/SVG/1.1/DTD/svg11.dtd">
<svg version="1.1" id="Layer_1" xmlns="http://www.w3.org/2000/svg" xmlns:xlink="http://www.w3.org/1999/xlink" x="0px" y="0px"
	 viewBox="0 0 576 576" enable-background="new 0 0 576 576" xml:space="preserve">
<circle fill="#F29072" cx="288" cy="288" r="288"/>
<g>
	<path fill="#FFFFFF" d="M194.5,283.7c0,15.9-8.9,22.6-16.8,22.6c-3.1,0-6.1-1-8-3.1c-3.6-3.7-5.2-10-5.2-20.3
		c0-5.1,0.9-15.5,2.2-29.8c-6.9-3.3-15-4.9-23.8-4.9c-4.5,0-8.6,0.4-12.5,1c-2.5,8.8-4,18.6-4.5,26.5c10,0.3,19.7-4.3,19.7-12.2
		c0-1.9,1.2-3.3,3.1-3.3c1.8,0,3.3,1.3,3.3,3.3c0,11.2-11.9,18.6-26.2,18.3c0,8.6,1.3,15,3.3,17.7c0.6,0.6,0.9,1.3,0.9,2.1
		c0,1.8-1.5,3.3-3.4,3.3c-4.2,0-7.4-8.9-7.3-23.8c-10.9-2.2-15.8-8.6-15.8-16.1c0-9.8,8.5-17.3,21.8-20.9
		c6-18.9,16.1-35.6,30.7-35.6c4.9,0,8.8,1.5,11.6,4.5c4.6,4.5,6.7,12.5,6.7,24.9c0,3.7-0.1,7.6-0.6,11.8
		C187.4,257.7,194.5,270.5,194.5,283.7z M110.1,265.1c0,4.5,2.4,8,9.2,10c0.3-6.7,1.9-16.1,4-23.8
		C116.5,253.8,110.1,258.6,110.1,265.1z M132.7,242.8c3.1-0.4,6.6-0.7,10.1-0.7c8.8,0,17,1.6,24.3,4.6c0.3-3,0.4-6,0.4-8.8
		c0-10.3-1.6-17.1-4.9-20.4c-1.6-1.6-3.9-2.7-6.9-2.7C145.8,214.7,138.1,227.4,132.7,242.8z M178,300.4c6.1,0,10-7.5,10-16.7
		c0-11.5-6.1-21.2-14.9-27.1c-0.9,8.6-2.1,20.4-2.1,26.4C171,292.7,172.3,300.4,178,300.4z"/>
	<path fill="#FFFFFF" d="M199,281.9c0-13.9,7.7-28.9,20.1-28.9c6.3,0,11,4.5,11,7.3c0,1.8-1.5,3.3-3.3,3.3c-1,0-2.2-0.6-2.8-1.6
		c-0.7-1.2-2.7-2.2-4.9-2.2c-7.7,0-13.6,11.2-13.6,22.2c0,10.1,4,17.1,10.1,17.1c12.5,0,18.5-25.6,18.8-52.7
		c-12.5-3.3-22.2-12.5-22.2-23.2c0-6.6,4.5-13.6,12.1-13.6c3,0,6.1,1.2,8.6,3.7c7.7,7.5,8.3,24.7,8.2,27.9c1.6,0.3,3.6,0.6,5.5,0.7
		c1.8,0.3,2.8,1.2,2.8,3c0,1.6-1.6,3.1-2.7,3.1c-1.8,0-3.7-0.1-5.8-0.6c-0.3,19.1-3.7,42.6-13.9,52.7c-3.3,3.3-7.2,5.1-11.6,5.1
		C206.3,305.2,199,296.3,199,281.9z M219,222.9c0,7.5,6.7,14.5,15.6,16.8c0-17.9-6.7-24-10.6-24C220.6,215.8,219,220,219,222.9z"/>
	<path fill="#FFFFFF" d="M245.6,301.9c0-1.5,1-5.5,1.9-9.5c1.8-7.6,4-17.7,4-25.6c0-1.6,0-6.9-2.2-9.1c-0.4-0.7-0.7-1.5-0.7-2.4
		c0-1.8,1.5-3.3,3.4-3.3c3.1,0,6.7,6.4,5.5,15.9c4.6-11.2,10.6-14.9,16.5-14.9c5.2,0,11.5,3.7,12.1,17.1
		c3.9-11.5,9.8-17.4,17.9-17.4c6.7,0.1,12.4,6.3,12.4,22.4c0,10.7-2.7,22.8-4,28.2c-0.6,1.3-1.8,2.4-3.3,2.4c-1.9,0-3.4-1.6-3.4-3.4
		c0-0.3,0-0.6,0.1-0.9c1.5-5.1,4-16.2,4-25.9c0-8.2-1.5-15.9-6.6-15.9c-8.3,0-16.1,16.1-18.9,33.5c-1.6,10.1-1.8,11.3-4.5,11.3
		c-1.9,0-3.3-1.6-3.3-3.4c0-0.6,0.7-5.1,1.3-8.2c1-6.6,1.9-12.8,1.9-18.6c0-3.3-0.1-14.5-6.6-14.5c-7.7,0-16.5,17.3-21.5,43.1
		c-0.3,1.6-1.5,2.7-3.1,2.7C246.8,305.3,245.6,303.9,245.6,301.9z"/>
	<path fill="#FFFFFF" d="M335.3,257.8c0,0.1,0,0.4-0.1,0.7c-2.7,10.7-5.5,30.1-6.4,44.3c-0.1,1.8-1.5,3.1-3.3,3.1
		c-1.9,0-3.4-1.5-3.4-3.4s2.2-27.9,6.7-45.6c0.3-1.8,2.2-2.8,4-2.4C334.3,255,335.3,256.3,335.3,257.8z M342.2,235.2l-6,4.2l9.1,5.8
		l-11-1.8l-4.2,8.2l0.1-8.6l-7.5-0.6l7.3-4.2l-0.7-6.9l4.5,4.9L342.2,235.2z"/>
	<path fill="#FFFFFF" d="M349.2,302.4c-0.3,1.8-1.6,2.8-3.3,2.8c-1.8,0-3-1.5-3-3.3c0-1,4.2-25.5,4.2-30.4c0-6.6-1.3-9.1-3.3-11
		c-0.7-0.6-0.9-1.5-0.9-2.4c0-1.8,1.5-3.3,3.1-3.3c2.8,0,7,5.1,6.7,12.5c3.3-9.8,11.3-14.3,18.8-14.3c1.9,0,3.6,1.3,3.6,3.3
		c0,1.8-1.3,2.8-3.1,3c-15.5,0.9-18.5,19.1-21.9,38.1L349.2,302.4z"/>
	<path fill="#FFFFFF" d="M410.7,268.2c0,5.7-0.9,12.2-1.9,17.9c-0.6,3.9-1.5,8.9-1.5,11.9c0,0.9,0.1,1.5,0.3,1.9
		c0.3,0.6,0.6,1,0.6,1.8c0,1.6-1.6,3.1-3.4,3.1c-3.3,0-4.2-4.2-4.2-7.2c0-3.1,0.9-7.3,1.6-12.7c0.9-5.5,1.9-11.3,1.9-16.5
		c0-7.2-3.9-9.8-7.7-9.8c-11.3,0-19.8,17.3-19.8,30.8c0,5.5,2.5,9.4,6.4,9.4c4,0,7-3.6,8.5-7.6c0.4-1.2,1.6-1.9,2.8-1.9
		c1.9,0,3.1,1.5,3.1,3.3c0,2.5-4.8,12.5-15.5,12.5c-6,0-12.1-4.5-12.1-15.6c0-15.5,10.7-37.1,27.1-37.1
		C405.5,252.4,410.7,258,410.7,268.2z"/>
	<path fill="#FFFFFF" d="M419.7,302.4c-0.3,1.8-1.6,2.8-3.3,2.8c-1.8,0-3-1.5-3-3.3c0-1,4.2-25.5,4.2-30.4c0-6.6-1.3-9.1-3.3-11
		c-0.7-0.6-0.9-1.5-0.9-2.4c0-1.8,1.5-3.3,3.1-3.3c2.8,0,7,5.1,6.7,12.5c3.3-9.8,11.3-14.3,18.8-14.3c1.9,0,3.6,1.3,3.6,3.3
		c0,1.8-1.3,2.8-3.1,3c-15.5,0.9-18.5,19.1-21.9,38.1L419.7,302.4z"/>
	<path fill="#FFFFFF" d="M459,257.8c0,0.1,0,0.4-0.1,0.7c-2.7,10.7-5.5,30.1-6.4,44.3c-0.1,1.8-1.5,3.1-3.3,3.1
		c-1.9,0-3.4-1.5-3.4-3.4s2.2-27.9,6.7-45.6c0.3-1.8,2.2-2.8,4-2.4C458,255,459,256.3,459,257.8z M465.9,235.2l-6,4.2l9.1,5.8
		l-11-1.8l-4.2,8.2l0.1-8.6l-7.5-0.6l7.3-4.2l-0.7-6.9l4.5,4.9L465.9,235.2z"/>
</g>
</svg>
