<?xml version="1.0" encoding="utf-8"?>
<!-- Generator: Adobe Illustrator 18.1.0, SVG Export Plug-In . SVG Version: 6.00 Build 0)  -->
<!DOCTYPE svg PUBLIC "-//W3C//DTD SVG 1.1//EN" "http://www.w3.org/Graphics/SVG/1.1/DTD/svg11.dtd">
<svg version="1.1" id="Layer_1" xmlns="http://www.w3.org/2000/svg" xmlns:xlink="http://www.w3.org/1999/xlink" x="0px" y="0px"
	 viewBox="0 0 576 576" enable-background="new 0 0 576 576" xml:space="preserve">
<g>
	<path fill="#F97878" d="M657.1,703.6h-810c-6.6,0-12-5.4-12-12v-780c0-6.6,5.4-12,12-12h810c6.6,0,12,5.4,12,12v780
		C669.1,698.2,663.7,703.6,657.1,703.6z"/>
</g>
<g>
	<g>
		<g>
			<path fill="#FFFFFF" d="M108.5,273.9H68.4l-10.9,28.6H44.2L82,204.2h12.8l38,98.3h-13.4L108.5,273.9z M88.5,222l-15.3,39.7h30.5
				L88.5,222z"/>
		</g>
		<g>
			<path fill="#FFFFFF" d="M183.9,201.2h11.9v101.3h-11.9v-7.3c-5.9,5-13.4,8.7-21.3,8.7c-8.8,0-17.1-3.3-23.5-9.5
				c-6.2-6.3-9.7-14.6-9.7-23.5s3.5-17.1,9.7-23.5c6.3-6.2,14.6-9.5,23.5-9.5c7.9,0,15.3,3.7,21.3,8.7V201.2z M183.9,270.9
				c0-11.7-9.5-21.4-21.3-21.4s-21.3,9.7-21.3,21.4s9.5,21.4,21.3,21.4S183.9,282.6,183.9,270.9z"/>
		</g>
		<g>
			<path fill="#FFFFFF" d="M314,268.5v33.9h-11.9v-33.9c0-10.4-8.4-18.9-18.6-18.9c-10.3,0-18.8,8.6-18.8,18.9v33.9h-11.9v-33.9
				c0-10.4-8.3-18.9-18.6-18.9c-10.2,0-18.6,8.6-18.6,18.9v33.9h-11.9v-63.2h11.9v6.1c5.4-4.1,11.9-7.3,18.6-7.3
				c8.1,0,15.9,3.6,21.7,9.4c1.1,1.1,2.1,2.2,2.9,3.4c1-1.2,1.9-2.3,3-3.4c5.8-5.8,13.5-9.4,21.7-9.4c8.1,0,15.7,3,21.5,8.8
				S314,260.2,314,268.5z"/>
		</g>
		<g>
			<path fill="#FFFFFF" d="M321.1,221.2c0-4.3,3.5-7.7,7.9-7.7c4.3,0,7.7,3.4,7.7,7.7c0,4.3-3.5,7.9-7.7,7.9
				C324.5,229.1,321.1,225.5,321.1,221.2z M323,239.3h11.9v63.2H323V239.3z"/>
		</g>
		<g>
			<path fill="#FFFFFF" d="M354.9,245.8c4-4.4,15.7-7.9,23-7.9l-2.9,11.9c-11,0-20.1,8.4-20.1,19v33.7H343v-63.2h11.9V245.8z"/>
		</g>
		<g>
			<path fill="#FFFFFF" d="M428.3,239.3h11.9v63.2h-11.9v-7.3c-5.9,5-13.4,8.7-21.3,8.7c-8.8,0-17.1-3.3-23.5-9.5
				c-6.2-6.3-9.7-14.6-9.7-23.5s3.5-17.1,9.7-23.5c6.3-6.2,14.6-9.5,23.5-9.5c7.9,0,15.3,3.7,21.3,8.7V239.3z M428.3,270.9
				c0-11.7-9.5-21.4-21.3-21.4s-21.3,9.7-21.3,21.4s9.5,21.4,21.3,21.4S428.3,282.6,428.3,270.9z"/>
		</g>
		<g>
			<path fill="#FFFFFF" d="M461,245.8c4-4.4,15.7-7.9,23-7.9l-2.9,11.9c-11,0-20.1,8.4-20.1,19v33.7h-11.9v-63.2H461V245.8z"/>
		</g>
		<g>
			<path fill="#FFFFFF" d="M490.1,221.2c0-4.3,3.5-7.7,7.9-7.7c4.3,0,7.7,3.4,7.7,7.7c0,4.3-3.5,7.9-7.7,7.9
				C493.6,229.1,490.1,225.5,490.1,221.2z M492,239.3h11.9v63.2H492V239.3z"/>
		</g>
	</g>
</g>
</svg>
