<?xml version="1.0" encoding="utf-8"?>
<!-- Generator: Adobe Illustrator 18.1.0, SVG Export Plug-In . SVG Version: 6.00 Build 0)  -->
<!DOCTYPE svg PUBLIC "-//W3C//DTD SVG 1.1//EN" "http://www.w3.org/Graphics/SVG/1.1/DTD/svg11.dtd">
<svg version="1.1" id="Layer_1" xmlns="http://www.w3.org/2000/svg" xmlns:xlink="http://www.w3.org/1999/xlink" x="0px" y="0px"
	 viewBox="0 0 576 576" enable-background="new 0 0 576 576" xml:space="preserve">
<circle fill="#306CD8" cx="288" cy="288" r="288"/>
<path fill="#F4A990" stroke="#F4A990" stroke-width="28" stroke-miterlimit="10" d="M497.6,243.2c-0.5,46.3-9.4,90.7-35,130.1
	c-8.8,13.6-15.9,27.1-19.7,43c-4.8,20-16.8,36.8-30.1,52.2c-20,23.4-40.8,46-69.5,59.6c-17.9,8.4-22.5,8.1-37.3-5.8
	c-14.2-13.3-14.2-13.3-28,0.3c-13.9,13.5-19.7,15.3-36.1,5.7c-49.9-29.3-89.2-67.7-103.9-126.1c-3.5-13.8-13.7-23.4-20.4-35.2
	c-16-27.8-24.4-57.9-28.5-89.5c-3.6-27.7-3.6-55.1,2.5-82.4c4.2-19,11.5-37.2,25.4-50.5c20.3-19.4,36.1-42,51.4-65
	c19.2-28.7,61.5-39.5,91.4-16.7c7.4,5.7,15.1,11.1,22,17.3c8.1,7.3,14.8,6.4,22.1-1.1C311.8,71,321.5,65,331,58.8
	c25.9-16.7,65.3-7.4,83.3,18.5c17.2,24.6,34.8,48.6,55.9,70.3c15.1,15.5,21.5,36.7,24.9,58.3C497,218.3,498,230.7,497.6,243.2z
	 M300.4,208.4c0-33.6,0-67.1,0-100.7c0-6.6-0.3-14.1-8.5-13.9c-8.1,0.2,8.8-6.2,12.8-1c54.9,69.6,120.1,185,73.9,249.3
	c0,6.6-94.6-19.6-86.3-19.8c8.1-0.2,8.1-7.8,8.1-14.3C300.4,274.8,300.4,241.6,300.4,208.4z M415.1,217.4c14.9,0,23.1,1.9,37.5,10.8
	c5.9,3.7,11,4.9,15-1.4c4.3-6.6-0.2-10.5-5.4-14.2c-31-21.9-73.8-18.2-101.5,9c-4.2,4.2-7.4,9.2-13.8,2c-3.2-3.7-8.5-6-13.3-0.7
	c-4.3,4.8-2.6,8.8,0.5,13.6c4.3,6.5,8,13.3,4.7,21.8c-2.4,6.1-1.2,12.8,5.6,14.4c6.8,1.7,10.6-2.7,12.7-10.1
	C365.3,234.4,387.6,217.4,415.1,217.4z M170.3,198.4c-18.3,0.2-33.4,4-47.1,13.5c-6,4.2-11.4,8.3-6.3,15.9c5,7.5,10.6,2.7,16-0.5
	c21.8-13,44.2-14.5,66.5-1.6c14.8,8.6,24,21.7,28.5,38.3c1.4,5.1,4.3,9.9,10.6,8.5c5.7-1.2,9.2-6.5,7.4-11.5
	c-3.7-10.7,0.1-18.9,5.9-27.2c3.2-4.7,1.7-9-2.6-12.2c-4.1-3-8.9-2.8-11.4,1.3c-5.9,9.5-9.7,3.3-14-1.1
	C208.6,206.2,189.8,199.3,170.3,198.4z M389.7,444.5c-15.7,19.3-26.7,23.3-49.1,18.1c-6.9-1.6-12.2-0.7-13.9,6.2
	c-1.7,7.2,3.3,9.8,9.8,11.7c9.3,2.8,18.6,2.4,27.9,1.9c22.5-1.4,48.3-28.3,48.6-50c0.2-11.9-6.1-16-16-10.2
	c-4.9,2.9-10,3.7-15.5,4.2c-10.8,0.9-17.2-5.6-24.2-12.1c-3.5-3.3-8.4-7.2-13.3-1.8c-4.6,5.1-4,9.8,1,15.3
	C356.6,440.4,370,447.5,389.7,444.5z M194.8,444.7c18.3,2.3,31.9-2.9,42.6-15.3c4.2-4.8,9.2-9.9,2.9-16c-6.3-6.2-11.3-1.1-15.9,3.2
	c-13,11.9-22.3,13.2-37.8,5c-9.2-4.8-15.2-1.4-15.2,8.9c0,3.4,0.3,7.1,1.5,10.3c11.6,31.5,38.1,49.2,75.1,39.7
	c6.6-1.7,11.5-4.6,9.6-11.8c-1.8-6.9-7.1-7.9-14-6C224.6,467.9,208.4,463.8,194.8,444.7z M422.9,175.2c0.9-0.2,3.6-0.4,6.2-1.2
	c4.9-1.6,7.9-4.7,7.3-10.4c-0.6-6.3-4.9-7.2-10-7.1c-2.3,0-4.7,0.1-7,0c-18.6-1.3-30.8-19.1-25-36.5c2-6,6.1-10.4,11.2-14.4
	c3.9-3,7.1-7.9,2.7-13.2c-3.9-4.7-8.2-4.7-13.4-1.4c-4.2,2.7-8.9,4.8-13.5,6.7c-9.8,4.1-19.1,0.3-28.2-2.9
	c-6.2-2.2-12.1-2.7-14.8,4.1c-2.9,7.2,2.7,10.5,8.4,12.9c5.4,2.3,10.8,5.4,16.7,4.7c10.3-1.1,12.9,3.6,11.9,12.8
	C372.7,154,396.2,174.6,422.9,175.2z M161.4,175.2c27.3-0.4,47.6-20.2,47.3-45.1c-0.1-9.3,1-14.7,12.3-13.8
	c5.4,0.4,11.2-2.7,16.8-4.3c7.3-2.2,10.5-7.5,7.8-14.3c-2.6-6.7-8.9-5.3-14-2.9c-14.2,6.6-27.7,5.4-40.9-2.5
	c-5.1-3-10.8-6.5-15.2,0.7c-4,6.6,0.8,10.5,5.5,14.5c11.5,9.9,13.8,24.5,5.9,36.4c-7,10.6-17.5,13.4-29.5,12.6
	c-4.6-0.3-8.6,0.8-9.4,6.4c-0.8,5.4,1.3,9.2,6.5,10.9C157.4,174.6,160.5,175,161.4,175.2z M145.5,293.5c-0.9-9.1,3.2-17.9,8.3-26.4
	c2.4-4,5.1-5.6,8.5-0.1c4.4,7.2,10.7,11.8,19.1,14.4c6.9,2.1,12.1,1,14.3-5.5c2.1-6.2-1.7-10.1-7.9-11.9c-7.3-2.1-11.8-7-13.9-14.4
	c-3.4-11.7-10.8-14.3-20.7-7.6c-30.4,20.6-34.7,67.3-8.5,93.1c4.8,4.8,9.7,10.6,16.6,3.6c6.3-6.4,0.7-11.5-3.3-16
	C150.6,314.6,145.2,306,145.5,293.5z M438.9,291.8c0,12.2-3,21.9-11.2,29.7c-2.2,2.1-4,4.8-5.7,7.3c-2.5,3.8-2.1,7.3,1.4,10.4
	c3.8,3.3,7.7,3.6,11.6,0.4c32.5-26.3,29-75.8-6.3-98.8c-8.9-5.8-15.1-2.6-18,8c-1.8,6.4-5.1,11-11.1,14.2c-5.8,3-15.3,4.8-10,14.6
	c5,9.2,12.8,4.1,19.5,1.4c2.8-1.1,5.3-3.3,7.5-5.4c12-11.4,14.2-10.8,19.9,5.7C437.9,283.8,439.4,288.2,438.9,291.8z M240.5,370
	c5.8-0.1,10.6,0.7,12.3-4.7c1.8-5.5-1.3-9.4-5.8-11.4c-9.6-4.2-15.6-11.1-18.3-21.2c-1.3-4.8-4.6-8.6-10.4-6.8
	c-5.1,1.5-8.5,5.7-6.9,10.6c3,9.1-2,9.9-8.8,10.9c-20.1,3-38.1,10.6-52.2,25.7c-5.3,5.7-15.4,11.8-7.4,20c8.2,8.4,14.2-1.6,20-6.9
	c19-17.4,40.7-25.1,66.4-18.8C233.6,368.5,237.8,369.4,240.5,370z M372.4,340c1.6-6.6,0-11.5-5.4-13.6c-5-1.9-10.7,0.8-11.5,5.2
	c-2.3,11.7-9.2,18.3-19.3,23.1c-3.5,1.7-6.2,4.9-4.5,9.6c1.5,4.3,4.5,6.2,9,5.7c2.7-0.3,5.5-0.2,8.1-1c30-9.3,55.1-0.8,76.3,21.3
	c4.8,5,10.6,8.7,16.1,3.3c5.6-5.5,1.5-11-3-16.2c-16-18.2-36.4-27.5-59.9-30.6C372.7,346,370,344.9,372.4,340z M300.4,409.8
	c0-13.7,0-27.3,0-41c0-5.5-0.6-10.3-7.8-10.6c-7.7-0.3-8.8,4.5-8.8,10.7c0.1,26.5,0.1,53.1,0,79.6c0,5.5,0.7,10.3,7.8,10.6
	c7.7,0.3,8.9-4.5,8.8-10.7C300.3,435.5,300.4,422.7,300.4,409.8z"/>
<path fill="#E98869" d="M299.1,209.8c0,33.2,0,66.5,0,99.7c0,6.5,0,14.1-8.1,14.3c-8.2,0.2-8.5-7.3-8.5-13.9c0-66.8,0-133.7,0-200.5
	c0-6.5,0-14.1,8.1-14.3c8.2-0.2,8.5,7.3,8.5,13.9C299.1,142.6,299.1,176.2,299.1,209.8z"/>
<path fill="#E9896A" d="M414,218.8c-27.5,0-49.8,17-58,45.3c-2.1,7.4-6,11.8-12.8,10.1c-6.8-1.7-8-8.4-5.6-14.5
	c3.4-8.6-0.4-15.4-4.7-21.9c-3.1-4.7-4.9-8.8-0.5-13.6c4.8-5.3,10-2.9,13.3,0.7c6.4,7.2,9.5,2.2,13.8-2c27.8-27.3,70.6-30.9,101.7-9
	c5.2,3.7,9.7,7.6,5.4,14.3c-4.1,6.3-9.1,5.1-15.1,1.4C437.1,220.7,428.9,218.8,414,218.8z"/>
<path fill="#E9896A" d="M168.8,199.8c19.5,0.9,38.4,7.8,53.6,23.4c4.3,4.4,8.1,10.6,14,1.1c2.5-4.1,7.3-4.3,11.4-1.3
	c4.3,3.2,5.9,7.6,2.6,12.2c-5.8,8.3-9.6,16.5-5.9,27.2c1.8,5.1-1.7,10.3-7.4,11.5c-6.3,1.4-9.2-3.4-10.6-8.5
	c-4.4-16.6-13.7-29.8-28.5-38.4c-22.3-13-44.7-11.4-66.6,1.6c-5.4,3.2-11,8-16,0.5c-5.1-7.6,0.3-11.8,6.3-15.9
	C135.4,203.8,150.5,200,168.8,199.8z"/>
<path fill="#E9896A" d="M388.5,446.2c-19.7,3-33.2-4.1-44.7-16.6c-5-5.5-5.6-10.2-1-15.3c4.9-5.4,9.7-1.5,13.3,1.8
	c7,6.5,13.4,13,24.2,12.1c5.6-0.5,10.6-1.3,15.6-4.2c10-5.9,16.2-1.8,16,10.2c-0.3,21.7-26.1,48.6-48.7,50
	c-9.3,0.6-18.6,0.9-27.9-1.9c-6.5-1.9-11.6-4.5-9.8-11.8c1.7-6.9,6.9-7.8,13.9-6.2C361.7,469.5,372.8,465.5,388.5,446.2z"/>
<path fill="#E9896A" d="M193.3,446.4c13.6,19.2,29.8,23.3,48.8,18c6.9-1.9,12.2-0.9,14,6c1.9,7.2-3.1,10.1-9.6,11.8
	c-37.1,9.6-63.6-8.2-75.2-39.7c-1.2-3.2-1.5-6.9-1.5-10.3c0-10.2,6.1-13.7,15.3-8.9c15.6,8.2,24.9,6.9,37.9-5
	c4.7-4.3,9.7-9.4,16-3.2c6.2,6.2,1.3,11.2-2.9,16C225.3,443.5,211.7,448.7,193.3,446.4z"/>
<path fill="#EA896A" d="M421.8,176.5c-26.7-0.6-50.2-21.2-47.5-46c1-9.2-1.6-14-11.9-12.8c-5.9,0.7-11.3-2.5-16.7-4.7
	c-5.7-2.4-11.3-5.8-8.5-12.9c2.7-6.8,8.7-6.2,14.9-4.1c9.1,3.2,18.4,6.9,28.2,2.9c4.7-1.9,9.4-4,13.6-6.7c5.1-3.3,9.5-3.3,13.4,1.4
	c4.4,5.3,1.1,10.2-2.7,13.2c-5.1,4-9.2,8.5-11.2,14.5c-5.9,17.4,6.4,35.2,25,36.5c2.3,0.2,4.7,0.1,7,0c5.1-0.1,9.4,0.8,10,7.2
	c0.6,5.7-2.4,8.8-7.3,10.4C425.4,176.1,422.7,176.3,421.8,176.5z"/>
<path fill="#E9896A" d="M159.9,176.5c-0.9-0.2-4-0.6-7-1.5c-5.2-1.7-7.3-5.5-6.5-10.9c0.8-5.6,4.8-6.7,9.5-6.4
	c12,0.8,22.5-2,29.5-12.7c7.8-11.9,5.6-26.6-5.9-36.4c-4.7-4-9.5-7.9-5.5-14.5c4.4-7.2,10.1-3.7,15.2-0.7c13.3,7.9,26.8,9.1,41,2.5
	c5.2-2.4,11.4-3.8,14.1,2.9c2.7,6.8-0.5,12.2-7.8,14.3c-5.6,1.6-11.3,4.7-16.8,4.3c-11.4-0.9-12.5,4.5-12.4,13.9
	C207.6,156.3,187.3,176.1,159.9,176.5z"/>
<path fill="#E9896A" d="M143.9,295c-0.3,12.5,5.2,21.2,12.4,29.3c4.1,4.5,9.7,9.6,3.3,16c-6.9,7-11.8,1.2-16.6-3.6
	c-26.2-25.8-22-72.7,8.5-93.3c9.9-6.7,17.3-4.1,20.7,7.6c2.2,7.4,6.7,12.3,14,14.5c6.2,1.8,10,5.7,7.9,11.9
	c-2.2,6.5-7.4,7.7-14.3,5.5c-8.4-2.6-14.8-7.3-19.1-14.4c-3.4-5.5-6.1-3.9-8.5,0.1C147.2,277,143,285.9,143.9,295z"/>
<path fill="#E9896A" d="M437.8,293.3c0.5-3.6-0.9-8-2.5-12.5c-5.7-16.5-7.9-17.1-19.9-5.7c-2.2,2.1-4.7,4.3-7.5,5.4
	c-6.6,2.7-14.5,7.8-19.5-1.4c-5.3-9.8,4.2-11.6,10-14.6c6-3.1,9.4-7.8,11.1-14.2c2.9-10.6,9.2-13.8,18.1-8.1
	c35.3,23,38.8,72.6,6.3,98.9c-3.9,3.2-7.9,2.9-11.6-0.4c-3.5-3.1-4-6.6-1.4-10.4c1.7-2.6,3.5-5.2,5.7-7.3
	C434.8,315.2,437.8,305.5,437.8,293.3z"/>
<path fill="#E9896A" d="M239.1,371.6c-2.7-0.6-6.9-1.5-11-2.5c-25.7-6.3-47.5,1.4-66.5,18.8c-5.8,5.3-11.8,15.3-20,6.9
	c-8-8.3,2-14.4,7.4-20.1c14.1-15.2,32.2-22.8,52.3-25.8c6.8-1,11.8-1.8,8.8-10.9c-1.6-4.9,1.8-9.1,6.9-10.7c5.8-1.7,9.1,2,10.4,6.8
	c2.7,10.2,8.7,17,18.3,21.3c4.5,2,7.6,5.9,5.8,11.4C249.7,372.3,244.9,371.5,239.1,371.6z"/>
<path fill="#E9886A" d="M371.2,341.6c-2.4,4.9,0.3,6.1,5.8,6.8c23.5,3.1,44,12.4,60,30.6c4.5,5.1,8.6,10.7,3,16.2
	c-5.6,5.4-11.3,1.7-16.1-3.3c-21.3-22.1-46.4-30.6-76.4-21.3c-2.6,0.8-5.4,0.7-8.1,1c-4.5,0.5-7.5-1.5-9-5.7c-1.6-4.7,1-8,4.5-9.6
	c10.1-4.8,17-11.5,19.3-23.1c0.9-4.4,6.6-7.1,11.6-5.2C371.2,330,372.8,334.9,371.2,341.6z"/>
<path fill="#E98869" d="M299.1,411.5c0,12.9-0.1,25.8,0,38.7c0.1,6.2-1.1,11-8.8,10.7c-7.1-0.3-7.8-5.1-7.8-10.6
	c0-26.6,0.1-53.1,0-79.7c0-6.2,1.1-11,8.8-10.7c7.1,0.3,7.8,5.1,7.8,10.6C299.1,384.1,299.1,397.8,299.1,411.5z"/>
</svg>
