<?xml version="1.0" encoding="utf-8"?>
<!-- Generator: Adobe Illustrator 18.1.0, SVG Export Plug-In . SVG Version: 6.00 Build 0)  -->
<!DOCTYPE svg PUBLIC "-//W3C//DTD SVG 1.1//EN" "http://www.w3.org/Graphics/SVG/1.1/DTD/svg11.dtd">
<svg version="1.1" id="Layer_1" xmlns="http://www.w3.org/2000/svg" xmlns:xlink="http://www.w3.org/1999/xlink" x="0px" y="0px"
	 viewBox="0 0 576 576" enable-background="new 0 0 576 576" xml:space="preserve">
<image overflow="visible" width="1440" height="878" xlink:href="../../../../../Desktop/Screen Shot 2014-11-29 at 11.36.14 PM.png"  transform="matrix(0.4 0 0 0.656 0 0)">
</image>
<rect x="43" y="38.4" fill="#EDEDED" width="535" height="66.1"/>
<rect x="43" y="98" fill="#FBFBFB" width="535" height="436"/>
<rect x="42.3" y="529.8" fill="#F4F4F4" width="541.3" height="54.6"/>
<path fill="#FFFFFF" d="M544.7,565.7H92c-4.9,0-9-4-9-9l0,0c0-5,4-9,9-9h452.7c5,0,9,4,9,9l0,0C553.7,561.6,549.6,565.7,544.7,565.7
	z"/>
<rect x="-22.4" y="-14.9" fill="#D3D2D5" width="604.9" height="63.4"/>
<rect x="-27.4" y="48.5" fill="#E6DCD7" width="77.4" height="542.5"/>
<rect x="55.7" y="403" fill="#F43DF0" width="46.7" height="45.3"/>
<text transform="matrix(1 0 0 1 115.0002 428.9608)" font-family="'MyriadPro-Regular'" font-size="22.0809">Hi!</text>
<text transform="matrix(1 0 0 1 98.9999 561.3779)" font-family="'MyriadPro-Regular'" font-size="16.8508">=)</text>
</svg>
