<?xml version="1.0" encoding="utf-8"?>
<!-- Generator: Adobe Illustrator 18.1.0, SVG Export Plug-In . SVG Version: 6.00 Build 0)  -->
<!DOCTYPE svg PUBLIC "-//W3C//DTD SVG 1.1//EN" "http://www.w3.org/Graphics/SVG/1.1/DTD/svg11.dtd">
<svg version="1.1" id="Layer_1" xmlns="http://www.w3.org/2000/svg" xmlns:xlink="http://www.w3.org/1999/xlink" x="0px" y="0px"
	 viewBox="0 0 576 576" enable-background="new 0 0 576 576" xml:space="preserve">
<path fill="#97BCFC" d="M657.1,703.6h-810c-6.6,0-12-5.4-12-12v-780c0-6.6,5.4-12,12-12h810c6.6,0,12,5.4,12,12v780
	C669.1,698.2,663.7,703.6,657.1,703.6z"/>
<g>
	<path fill="#FFFFFF" d="M98.4,211.3V235c0,2.8,1.2,4.6,3.6,5.4c1.1,0.4,1.9,1,2.4,1.7c0.5,0.7,0.7,2.1,0.7,4.1
		c0,1.9-0.3,3.1-0.8,3.5c-0.5,0.5-1.6,0.7-3.1,0.7H68.8c-1.7,0-2.6-1.5-2.6-4.5c0-2.4,0.1-3.8,0.4-4.4c0.2-0.5,1-1,2.4-1.5
		c1.2-0.4,2-0.8,2.3-1.2c0.3-0.5,0.5-1.2,0.5-2.3v-86.1c0-2-1.3-3.7-3.8-4.9c-1.3-0.7-2-1.8-2.1-3.3l-0.1-3.4c0-1.4,0.2-2.4,0.5-2.8
		c0.4-0.5,1.2-0.7,2.4-0.7h36.5c10.5,0,18.9,3.4,25.1,10.1c6.2,6.7,9.4,16,9.4,27.9c0,6.7-1,12.7-2.9,17.9
		c-1.9,5.2-4.3,9.1-7.3,11.5c-2.9,2.5-6.3,4.5-10.1,6.1c-3.8,1.6-7.9,2.4-12.2,2.4H98.4z M98.4,143.3v59.7h5c1.7,0,3.2-0.9,4.6-2.8
		c1.4-1.9,2-5,2-9.4v-35.6c0-8-2.7-12-8-12H98.4z"/>
	<path fill="#FFFFFF" d="M177.5,152.1c8.9,0,16.4,4,22.4,12c6,8,9,19.9,9,35.7c0,17-3,29.9-9.1,38.6c-6.1,8.7-13.7,13.1-22.7,13.1
		c-6.3,0-11.7-2-16.3-6c-4.6-4-8.2-9.3-10.7-16c-2.5-6.7-3.7-15.8-3.7-27.3c0-16.5,2.9-29,8.6-37.4
		C160.6,156.3,168.2,152.1,177.5,152.1z M182.7,170c0-5.9-1.7-8.8-5.1-8.8c-3.7,0-5.6,3.6-5.6,10.8v59.2c0,7.2,1.7,10.8,5.1,10.8
		c3.8,0,5.6-3.6,5.6-10.8V170z"/>
	<path fill="#FFFFFF" d="M219.4,162.9h-2.8c-0.8,0-1.3-0.1-1.5-0.3c-0.2-0.2-0.3-0.7-0.3-1.6v-5.1c0-1,0.1-1.6,0.3-1.9
		s0.8-0.5,1.9-0.6c3.4-0.5,6.9-2.4,10.3-5.7c3.5-3.3,5.5-6.8,6.2-10.6c0.2-1.3,0.5-2.1,0.9-2.5c0.4-0.3,1.1-0.5,2.2-0.5h4.6
		c1.2,0,1.9,0.8,1.9,2.5v16.4h4.4c1.7,0,2.5,0.8,2.5,2.4v5.1c0,1.5-0.8,2.3-2.5,2.3h-4.4v73.9c0,2.5,1.1,4.3,3.4,5.4
		c1.1,0.5,1.8,1.2,2.1,1.9c0.3,0.8,0.5,2.1,0.5,4.1c0,1.2-0.1,1.9-0.2,2.1c-0.2,0.1-0.7,0.2-1.7,0.2h-22.5c-3.4-3-5.1-7.6-5.1-13.8
		V162.9z"/>
	<path fill="#FFFFFF" d="M282.1,200.4v29.2c0,3.8,0.7,6.9,2.2,9.1c1.5,2.2,3.4,3.3,5.7,3.3c3.6,0,6.5-1.5,8.7-4.6
		c2.2-3.1,3.3-7.3,3.5-12.6c0-2.9,0.3-4.6,0.8-5.1s2.2-0.9,5.2-0.9c2.6,0,4.2,0.3,4.9,0.8c0.7,0.5,1,1.8,1,3.9
		c0,7.3-2.4,13.8-7.1,19.5c-4.8,5.7-11,8.6-18.9,8.6c-9,0-16.6-4.1-22.9-12.2c-6.3-8.2-9.4-20.4-9.4-36.8s2.9-28.9,8.7-37.5
		c5.8-8.6,13.4-12.9,22.8-12.9c8.1,0,14.6,3.6,19.5,10.8c4.9,7.2,7.3,17.5,7.3,30.8v6.6H282.1z M291.7,191.5v-23.6
		c0-4.5-1.6-6.7-4.8-6.7c-3.2,0-4.8,2.2-4.8,6.7v23.6H291.7z"/>
	<path fill="#FFFFFF" d="M358.3,154.7l3.9,19.7c0.1,0.6,0.1,1.2,0.1,1.6c0,1.3-1.3,2-3.8,2c-1.7,0-3-0.2-3.7-0.6s-1.7-1.6-2.7-3.4
		c-1.1-2.2-2.9-4.8-5.2-7.8c-2.3-3-4.4-4.5-6.3-4.5c-0.7,0-1.3,0.3-1.9,1c-0.5,0.7-0.8,1.4-0.8,2.4c0,2.4,3.5,9.3,10.4,20.6
		c6,9.8,10.1,17.5,12.2,23.1c2.1,5.6,3.2,11.9,3.2,18.9c0,7.5-1.6,13.3-4.8,17.4c-3.2,4.2-7,6.2-11.4,6.2c-2.8,0-5.7-1-8.7-3
		c-1.7-1.1-2.8-1.6-3.4-1.6c-0.7,0-1,0.5-1.1,1.6c-0.2,1.3-0.5,2.1-0.9,2.5c-0.4,0.4-1.6,0.5-3.7,0.5c-1.6,0-2.7-0.2-3.1-0.7
		c-0.5-0.5-0.8-1.3-1-2.5l-3.6-19.9c-0.1-1-0.2-1.5-0.2-1.8c0-1.3,1.6-2,4.8-2c1.7,0,2.8,0.2,3.5,0.6s1.5,1.7,2.5,3.7
		c3.7,7.7,7.2,11.6,10.6,11.6c2.1,0,3.2-1.3,3.2-3.8c0-2.3-0.8-5.1-2.4-8.5c-1.6-3.4-4.7-8.9-9.3-16.6c-4.8-8.2-8.4-15-10.5-20.5
		c-2.2-5.5-3.2-11-3.2-16.6c0-7.6,1.6-13.2,4.8-16.9c3.2-3.7,7.2-5.6,11.8-5.6c2.4,0,5.2,0.8,8.3,2.5c1.6,0.9,2.6,1.3,3.2,1.3
		c0.8,0,1.2-0.5,1.4-1.5c0.2-1,0.6-1.7,1.1-1.9c0.6-0.2,1.8-0.4,3.6-0.4c1.2,0,2,0.1,2.3,0.4C357.7,152.8,358,153.5,358.3,154.7z"/>
	<path fill="#FFFFFF" d="M373,162.9h-2.8c-0.8,0-1.3-0.1-1.5-0.3c-0.2-0.2-0.3-0.7-0.3-1.6v-5.1c0-1,0.1-1.6,0.3-1.9
		s0.8-0.5,1.9-0.6c3.4-0.5,6.9-2.4,10.3-5.7c3.5-3.3,5.5-6.8,6.2-10.6c0.2-1.3,0.5-2.1,0.9-2.5c0.4-0.3,1.1-0.5,2.2-0.5h4.6
		c1.2,0,1.9,0.8,1.9,2.5v16.4h4.4c1.7,0,2.5,0.8,2.5,2.4v5.1c0,1.5-0.8,2.3-2.5,2.3h-4.4v73.9c0,2.5,1.1,4.3,3.4,5.4
		c1.1,0.5,1.8,1.2,2.1,1.9c0.3,0.8,0.5,2.1,0.5,4.1c0,1.2-0.1,1.9-0.2,2.1c-0.2,0.1-0.7,0.2-1.7,0.2h-22.5c-3.4-3-5.1-7.6-5.1-13.8
		V162.9z"/>
	<path fill="#FFFFFF" d="M445.9,181.4v-13.8c0-3.8-1.5-5.7-4.6-5.7c-4.2,0-6.3,2.9-6.3,8.6c0,3.2-0.4,5.5-1.1,6.9
		c-0.7,1.4-2.4,2.6-5,3.5c-2.6,1-5.4,1.5-8.3,1.5c-6,0-9.1-3.2-9.1-9.7c0-6.1,2.6-11,7.9-14.9c5.3-3.8,12.1-5.8,20.6-5.8
		c5.6,0,10.6,0.8,15,2.3c4.4,1.5,8,4.1,10.7,7.7c2.7,3.6,4,7.6,4,11.9v65c0.1,0.3,0.8,1,2.1,2.1c1,0.7,1.4,1.8,1.4,3.1
		c0,1.9-0.3,3.2-0.8,4c-0.5,0.8-1.8,1.5-3.8,2.2c-2,0.7-4.6,1-7.6,1c-3.7,0-6.8-0.7-9.3-2c-2.5-1.4-4.4-4-5.8-7.9
		c-4.1,4.3-7.5,7-10.1,8.2s-5.2,1.8-7.9,1.8c-6,0-10.7-2.4-14-7.1s-5-12.5-5-23.2c0-10.7,1.5-18.2,4.6-22.3c3.1-4.2,9.1-8,18.1-11.5
		C437.4,185.2,442.1,183.2,445.9,181.4z M445.9,190.7c-5.4,2.4-8.6,5-9.6,8c-1,3-1.6,9.6-1.6,20c0,7.6,0.4,12.5,1.3,14.5
		s2.3,3,4.4,3c3.7,0,5.5-3,5.5-9.1V190.7z"/>
	<path fill="#FFFFFF" d="M516.4,154.7l3.9,19.7c0.1,0.6,0.1,1.2,0.1,1.6c0,1.3-1.3,2-3.8,2c-1.7,0-3-0.2-3.7-0.6
		c-0.8-0.4-1.7-1.6-2.7-3.4c-1.1-2.2-2.9-4.8-5.2-7.8s-4.4-4.5-6.3-4.5c-0.7,0-1.3,0.3-1.9,1c-0.5,0.7-0.8,1.4-0.8,2.4
		c0,2.4,3.5,9.3,10.4,20.6c6,9.8,10.1,17.5,12.2,23.1c2.1,5.6,3.2,11.9,3.2,18.9c0,7.5-1.6,13.3-4.8,17.4s-7,6.2-11.4,6.2
		c-2.8,0-5.7-1-8.7-3c-1.7-1.1-2.8-1.6-3.3-1.6c-0.7,0-1,0.5-1.1,1.6c-0.2,1.3-0.5,2.1-0.9,2.5c-0.4,0.4-1.6,0.5-3.7,0.5
		c-1.6,0-2.7-0.2-3.1-0.7c-0.5-0.5-0.8-1.3-1-2.5l-3.6-19.9c-0.1-1-0.2-1.5-0.2-1.8c0-1.3,1.6-2,4.8-2c1.7,0,2.8,0.2,3.5,0.6
		c0.6,0.4,1.5,1.7,2.5,3.7c3.7,7.7,7.2,11.6,10.6,11.6c2.1,0,3.2-1.3,3.2-3.8c0-2.3-0.8-5.1-2.4-8.5c-1.6-3.4-4.7-8.9-9.3-16.6
		c-4.8-8.2-8.4-15-10.5-20.5c-2.2-5.5-3.2-11-3.2-16.6c0-7.6,1.6-13.2,4.8-16.9c3.2-3.7,7.2-5.6,11.8-5.6c2.4,0,5.2,0.8,8.3,2.5
		c1.6,0.9,2.6,1.3,3.2,1.3c0.8,0,1.2-0.5,1.4-1.5c0.2-1,0.6-1.7,1.1-1.9c0.6-0.2,1.8-0.4,3.6-0.4c1.2,0,2,0.1,2.3,0.4
		C515.8,152.8,516.2,153.5,516.4,154.7z"/>
	<path fill="#FFFFFF" d="M71.4,352.5v-61.2h5.8v61.2H71.4z"/>
	<path fill="#FFFFFF" d="M87.5,291.3H132v4.9h-19.4v56.3h-5.8v-56.3H87.5V291.3z"/>
	<path fill="#FFFFFF" d="M207.3,309c-1.2-5.2-3.4-8.9-6.6-11.1s-7.5-3.3-12.7-3.3c-3.7,0-6.9,0.7-9.5,2.2c-2.7,1.5-4.9,3.5-6.6,5.9
		c-1.7,2.5-3,5.4-3.8,8.6c-0.8,3.3-1.2,6.7-1.2,10.3c0,3.4,0.4,6.7,1.1,10c0.7,3.3,1.9,6.2,3.5,8.8c1.6,2.6,3.9,4.7,6.6,6.2
		c2.8,1.6,6.3,2.4,10.5,2.4c2.6,0,5-0.4,7.1-1.3c2.2-0.9,4-2,5.7-3.5c1.6-1.5,3-3.3,4.1-5.3s1.9-4.3,2.5-6.7h6
		c-0.7,2.9-1.7,5.7-3,8.4c-1.3,2.6-3,4.9-5.1,6.9c-2.1,2-4.7,3.6-7.7,4.7c-3,1.2-6.6,1.7-10.7,1.7c-4.7,0-8.7-0.9-12.1-2.6
		c-3.3-1.7-6.1-4.1-8.2-7c-2.1-2.9-3.7-6.4-4.6-10.2c-1-3.9-1.4-8-1.4-12.4c0-5.8,0.7-10.8,2.2-14.9s3.4-7.4,6-10
		c2.5-2.6,5.6-4.4,9-5.6c3.5-1.2,7.2-1.7,11.3-1.7c3.1,0,6,0.4,8.7,1.2c2.7,0.8,5.1,2.1,7.1,3.7c2.1,1.6,3.8,3.7,5.1,6.1
		c1.3,2.4,2.3,5.2,2.8,8.4H207.3z"/>
	<path fill="#FFFFFF" d="M242,353.7c-2.8-0.1-5.5-0.6-7.9-1.5c-2.5-1-4.6-2.4-6.5-4.3c-1.8-1.9-3.3-4.3-4.4-7.2
		c-1.1-2.9-1.6-6.3-1.6-10.1c0-3.2,0.4-6.2,1.3-9.1c0.9-2.8,2.1-5.3,3.8-7.4c1.7-2.1,3.8-3.8,6.4-5c2.5-1.2,5.5-1.8,8.9-1.8
		c3.5,0,6.5,0.6,9,1.8c2.5,1.2,4.7,2.9,6.4,4.9c1.7,2.1,3,4.5,3.8,7.4c0.8,2.8,1.2,5.9,1.2,9.1c0,3.5-0.5,6.7-1.4,9.5
		c-1,2.8-2.3,5.3-4.1,7.3c-1.8,2-3.9,3.6-6.5,4.7C247.9,353.1,245.1,353.7,242,353.7z M257,330.5c0-2.6-0.3-5-0.8-7.3
		c-0.6-2.3-1.4-4.2-2.6-5.9c-1.2-1.7-2.7-3-4.6-4c-1.9-1-4.2-1.4-6.9-1.4c-2.7,0-4.9,0.5-6.8,1.6c-1.9,1-3.4,2.4-4.6,4.2
		c-1.2,1.7-2.1,3.7-2.6,6c-0.6,2.2-0.9,4.5-0.9,6.9c0,2.7,0.3,5.2,1,7.5c0.7,2.3,1.6,4.3,2.8,5.9c1.2,1.6,2.8,2.9,4.7,3.8
		s4,1.4,6.5,1.4c2.7,0,4.9-0.5,6.8-1.6c1.9-1,3.4-2.5,4.6-4.2c1.2-1.8,2.1-3.7,2.6-5.9C256.7,335.1,257,332.8,257,330.5z"/>
	<path fill="#FFFFFF" d="M276.2,352.5h-5.1v-44h5.1v6.6h0.2c1.3-2.5,3.2-4.5,5.6-5.8c2.4-1.3,5.1-2,8-2c2,0,3.8,0.2,5.2,0.7
		c1.4,0.5,2.6,1.1,3.6,1.8c1,0.8,1.8,1.7,2.5,2.7c0.7,1,1.2,2.1,1.7,3.3c1.5-2.9,3.4-5,5.9-6.4c2.5-1.4,5.3-2.1,8.5-2.1
		c3,0,5.4,0.5,7.2,1.5c1.8,1,3.2,2.3,4.1,3.9c1,1.6,1.6,3.5,1.9,5.6c0.3,2.1,0.5,4.2,0.5,6.5v27.8h-5.1V322c0-3.2-0.7-5.7-2-7.5
		c-1.3-1.8-3.8-2.7-7.4-2.7c-1.9,0-3.7,0.4-5.4,1.2c-1.7,0.8-3.2,2.1-4.5,3.8c-0.6,0.7-1,1.6-1.4,2.6c-0.4,1-0.7,2-0.9,3.1
		c-0.2,1.1-0.4,2.2-0.5,3.2c-0.1,1.1-0.1,2.1-0.1,3v23.7h-5.1V322c0-3.2-0.7-5.7-2-7.5c-1.3-1.8-3.8-2.7-7.4-2.7
		c-1.9,0-3.7,0.4-5.4,1.2c-1.7,0.8-3.2,2.1-4.5,3.8c-0.6,0.7-1,1.6-1.4,2.6c-0.4,1-0.7,2-0.9,3.1c-0.2,1.1-0.4,2.2-0.5,3.2
		c-0.1,1.1-0.1,2.1-0.1,3V352.5z"/>
	<path fill="#FFFFFF" d="M348.3,369.8h-5.1v-61.4h5.1v7.7h0.2c0.7-1.4,1.7-2.7,2.8-3.8c1.2-1.1,2.4-2.1,3.8-2.8
		c1.4-0.7,2.8-1.3,4.3-1.7c1.5-0.4,2.9-0.6,4.3-0.6c3.6,0,6.6,0.6,9.1,1.8c2.5,1.2,4.5,2.8,6.2,4.9c1.6,2.1,2.8,4.5,3.5,7.4
		c0.7,2.8,1.1,5.9,1.1,9.1c0,3.1-0.4,6-1.2,8.8c-0.8,2.8-2,5.3-3.6,7.4c-1.6,2.1-3.7,3.8-6.1,5.1c-2.5,1.3-5.4,1.9-8.7,1.9
		c-3.1,0-6.1-0.7-9-2.1s-5.1-3.4-6.8-6.2V369.8z M348.3,330.6c0,2.5,0.3,4.9,1,7.1c0.7,2.2,1.7,4.2,2.9,5.9c1.3,1.7,2.8,3,4.7,4
		c1.8,1,3.9,1.5,6.2,1.5c2.6,0,4.9-0.5,6.8-1.6c2-1,3.6-2.5,4.8-4.3c1.2-1.8,2.2-3.9,2.7-6.3c0.6-2.4,0.8-5,0.7-7.8
		c0-2.8-0.4-5.2-1.1-7.4c-0.8-2.1-1.8-3.9-3.2-5.4c-1.4-1.5-2.9-2.6-4.8-3.4c-1.8-0.8-3.8-1.1-6-1.1c-2.4,0-4.5,0.5-6.4,1.4
		c-1.9,1-3.4,2.3-4.7,4c-1.2,1.7-2.2,3.7-2.8,5.9C348.6,325.5,348.3,328,348.3,330.6z"/>
	<path fill="#FFFFFF" d="M414.7,326.8c1-0.1,2.1-0.3,3.4-0.5c1.3-0.2,2.4-0.5,3.3-0.9c0.9-0.4,1.4-1.1,1.6-2
		c0.2-0.9,0.3-1.8,0.3-2.6c0-2.6-0.8-4.7-2.5-6.4c-1.7-1.7-4.5-2.5-8.5-2.5c-1.8,0-3.4,0.2-4.8,0.5c-1.5,0.3-2.8,0.9-3.9,1.6
		c-1.1,0.8-2,1.8-2.7,3.1c-0.7,1.3-1.2,2.9-1.4,4.8h-5.2c0.2-2.6,0.8-4.8,1.8-6.7c1-1.8,2.3-3.3,4-4.5c1.6-1.2,3.5-2,5.6-2.6
		c2.1-0.5,4.4-0.8,6.8-0.8c2.2,0,4.3,0.2,6.2,0.7c2,0.5,3.7,1.2,5.1,2.3c1.4,1,2.6,2.5,3.4,4.2c0.8,1.8,1.2,3.9,1.2,6.5v24
		c0,2,0.4,3.2,1.1,3.8c0.7,0.5,2.1,0.4,4.3-0.4v4c-0.4,0.1-1,0.3-1.7,0.5c-0.8,0.2-1.5,0.3-2.3,0.3c-0.8,0-1.6-0.1-2.3-0.3
		c-0.8-0.1-1.5-0.4-2-0.8c-0.5-0.4-0.9-0.9-1.2-1.5c-0.3-0.6-0.5-1.2-0.6-2c-0.1-0.7-0.2-1.5-0.2-2.3c-2.2,2.4-4.6,4.2-7.4,5.4
		c-2.8,1.2-5.8,1.9-9,1.9c-1.9,0-3.8-0.3-5.6-0.8c-1.8-0.5-3.4-1.3-4.7-2.4c-1.4-1.1-2.4-2.4-3.2-4c-0.8-1.6-1.2-3.4-1.2-5.6
		c0-7.5,5.1-11.9,15.4-13.3L414.7,326.8z M423.3,329.4c-2.2,0.9-4.3,1.5-6.5,1.8c-2.2,0.3-4.4,0.5-6.6,0.7c-3.9,0.3-7,1.2-9.1,2.6
		c-2.2,1.5-3.3,3.7-3.3,6.7c0,1.4,0.3,2.5,0.8,3.5c0.5,1,1.2,1.8,2.1,2.5c0.9,0.7,1.9,1.1,3.1,1.4c1.2,0.3,2.3,0.5,3.5,0.5
		c2,0,4-0.3,5.9-0.8c1.9-0.5,3.6-1.3,5.1-2.3c1.5-1,2.7-2.4,3.6-4c0.9-1.6,1.4-3.5,1.4-5.7V329.4z"/>
	<path fill="#FFFFFF" d="M446.9,352.5h-5.1v-44h5.1v6.1c2-2.2,4.2-3.9,6.3-5.3c2.2-1.4,4.8-2,7.9-2c2.7,0,5.2,0.5,7.6,1.4
		c2.3,0.9,4.3,2.6,5.9,4.9c1.1,1.6,1.7,3.2,1.9,4.9c0.2,1.7,0.3,3.4,0.3,5.2v28.8h-5.1v-28.7c0-4-0.9-6.9-2.6-8.9
		c-1.8-2-4.7-3-8.8-3c-1.6,0-3,0.2-4.3,0.7c-1.3,0.5-2.5,1.1-3.5,1.9c-1,0.8-1.9,1.7-2.7,2.7c-0.7,1-1.3,2.1-1.7,3.2
		c-0.5,1.4-0.8,2.8-0.9,4.1c-0.1,1.3-0.2,2.7-0.2,4.2V352.5z"/>
	<path fill="#FFFFFF" d="M488.7,364.4c0.7,0.1,1.4,0.2,2.1,0.3c0.7,0.1,1.4,0.2,2.2,0.2c1.4,0,2.6-0.5,3.5-1.4
		c0.9-0.9,1.7-2,2.3-3.3c0.6-1.3,1.1-2.6,1.5-4c0.4-1.4,0.9-2.6,1.4-3.5l-17.1-44.3h5.7l14.1,37.8l14.1-37.8h5.5l-16.4,43.4
		c-1,2.8-2,5.3-2.9,7.5c-0.9,2.2-1.9,4.1-3,5.7c-1,1.6-2.2,2.7-3.5,3.6c-1.3,0.8-2.8,1.2-4.5,1.2c-0.9,0-1.8-0.1-2.6-0.2
		c-0.8-0.1-1.6-0.3-2.3-0.4V364.4z"/>
</g>
</svg>
