<?xml version="1.0" encoding="utf-8"?>
<!-- Generator: Adobe Illustrator 18.1.0, SVG Export Plug-In . SVG Version: 6.00 Build 0)  -->
<!DOCTYPE svg PUBLIC "-//W3C//DTD SVG 1.1//EN" "http://www.w3.org/Graphics/SVG/1.1/DTD/svg11.dtd">
<svg version="1.1" id="Layer_1" xmlns="http://www.w3.org/2000/svg" xmlns:xlink="http://www.w3.org/1999/xlink" x="0px" y="0px"
	 viewBox="0 0 576 576" enable-background="new 0 0 576 576" xml:space="preserve">
<circle fill="#6FB7F7" cx="288" cy="288" r="288"/>
<g>
	<path fill="#FFFFFF" d="M69.8,260.3v27.9c0,3.2,1.4,5.4,4.2,6.4c1.3,0.5,2.3,1.2,2.8,2c0.5,0.9,0.8,2.5,0.8,4.8
		c0,2.2-0.3,3.6-0.9,4.1c-0.6,0.5-1.8,0.8-3.7,0.8H35.1c-2,0-3-1.8-3-5.3c0-2.8,0.1-4.5,0.4-5.1c0.3-0.6,1.2-1.2,2.8-1.7
		c1.4-0.4,2.4-0.9,2.7-1.5c0.4-0.5,0.5-1.4,0.5-2.7V189c0-2.4-1.5-4.3-4.4-5.8c-1.6-0.8-2.4-2.1-2.4-3.8l-0.1-3.9
		c0-1.7,0.2-2.8,0.6-3.3c0.4-0.5,1.4-0.8,2.8-0.8h42.8c12.3,0,22.2,3.9,29.5,11.8c7.3,7.9,11,18.8,11,32.8c0,7.9-1.1,14.9-3.4,21
		c-2.3,6.1-5.1,10.7-8.5,13.6c-3.4,2.9-7.4,5.3-11.9,7.1c-4.5,1.8-9.3,2.8-14.3,2.8H69.8z M69.8,180.6v70.1h5.9c2,0,3.8-1.1,5.4-3.3
		c1.6-2.2,2.4-5.9,2.4-11v-41.7c0-9.4-3.1-14.1-9.4-14.1H69.8z"/>
	<path fill="#FFFFFF" d="M159.2,190.9c10.5,0,19.2,4.7,26.3,14.1c7,9.4,10.5,23.4,10.5,41.9c0,20-3.6,35.1-10.7,45.3
		c-7.1,10.2-16,15.4-26.7,15.4c-7.4,0-13.7-2.3-19.2-7c-5.4-4.7-9.6-10.9-12.5-18.7c-2.9-7.8-4.4-18.5-4.4-32
		c0-19.4,3.4-34,10.1-43.9C139.4,195.9,148.3,190.9,159.2,190.9z M165.3,211.9c0-6.9-2-10.4-6-10.4c-4.3,0-6.5,4.2-6.5,12.7v69.5
		c0,8.4,2,12.6,5.9,12.6c4.4,0,6.6-4.2,6.6-12.6V211.9z"/>
	<path fill="#FFFFFF" d="M201.5,203.5h-3.3c-0.9,0-1.5-0.1-1.8-0.3c-0.3-0.2-0.4-0.8-0.4-1.8v-6c0-1.1,0.1-1.8,0.4-2.2
		c0.3-0.3,1-0.6,2.2-0.8c4-0.6,8.1-2.8,12.1-6.7c4.1-3.8,6.5-8,7.3-12.4c0.3-1.6,0.6-2.5,1-2.9c0.4-0.4,1.3-0.5,2.6-0.5h5.4
		c1.4,0,2.2,1,2.2,2.9v19.2h5.2c2,0,2.9,0.9,2.9,2.8v6c0,1.8-1,2.7-2.9,2.7h-5.2v86.7c0,3,1.3,5.1,3.9,6.4c1.3,0.6,2.1,1.4,2.5,2.3
		c0.4,0.9,0.6,2.5,0.6,4.9c0,1.5-0.1,2.3-0.3,2.4c-0.2,0.2-0.9,0.3-2,0.3h-26.4c-4-3.6-6-9-6-16.1V203.5z"/>
	<path fill="#FFFFFF" d="M268.3,247.5v34.2c0,4.5,0.9,8.1,2.6,10.6c1.8,2.6,4,3.8,6.7,3.8c4.2,0,7.6-1.8,10.2-5.4
		c2.5-3.6,3.9-8.5,4.1-14.8c0.1-3.3,0.4-5.4,1-6c0.6-0.7,2.6-1,6.1-1c3,0,4.9,0.3,5.7,0.9c0.8,0.6,1.2,2.1,1.2,4.6
		c0,8.6-2.8,16.2-8.4,22.9c-5.6,6.7-13,10-22.2,10c-10.5,0-19.5-4.8-26.9-14.3c-7.4-9.6-11-24-11-43.2s3.4-33.9,10.2-44
		c6.8-10.1,15.7-15.1,26.8-15.1c9.5,0,17.1,4.2,22.8,12.7c5.7,8.5,8.6,20.5,8.6,36.1v7.8H268.3z M279.6,237.1v-27.7
		c0-5.2-1.9-7.9-5.6-7.9c-3.8,0-5.7,2.6-5.7,7.9v27.7H279.6z"/>
	<path fill="#FFFFFF" d="M357.6,194l4.6,23.2c0.1,0.7,0.2,1.4,0.2,1.9c0,1.6-1.5,2.3-4.5,2.3c-2,0-3.5-0.3-4.4-0.8
		c-0.9-0.5-2-1.8-3.1-4c-1.3-2.6-3.4-5.6-6.1-9.1c-2.7-3.5-5.2-5.3-7.4-5.3c-0.8,0-1.6,0.4-2.2,1.2c-0.6,0.8-1,1.7-1,2.8
		c0,2.8,4.1,10.9,12.2,24.2c7,11.5,11.8,20.6,14.3,27.2c2.5,6.6,3.8,14,3.8,22.2c0,8.7-1.9,15.6-5.7,20.4c-3.8,4.9-8.3,7.3-13.4,7.3
		c-3.2,0-6.6-1.2-10.2-3.5c-2-1.3-3.3-1.9-3.9-1.9c-0.8,0-1.2,0.6-1.3,1.9c-0.2,1.5-0.6,2.5-1,2.9c-0.4,0.4-1.9,0.6-4.4,0.6
		c-1.9,0-3.1-0.3-3.7-0.8c-0.6-0.6-0.9-1.5-1.2-2.9l-4.2-23.3c-0.2-1.1-0.3-1.8-0.3-2.1c0-1.6,1.9-2.3,5.6-2.3c2,0,3.3,0.3,4.1,0.8
		c0.8,0.5,1.7,2,2.9,4.3c4.4,9.1,8.5,13.6,12.4,13.6c2.5,0,3.8-1.5,3.8-4.5c0-2.7-0.9-6-2.8-9.9c-1.9-4-5.5-10.4-10.9-19.5
		c-5.7-9.6-9.8-17.6-12.3-24.1c-2.5-6.5-3.8-13-3.8-19.5c0-8.9,1.9-15.5,5.7-19.8c3.8-4.3,8.4-6.5,13.8-6.5c2.8,0,6.1,1,9.7,2.9
		c1.8,1,3.1,1.5,3.8,1.5c0.9,0,1.4-0.6,1.6-1.8c0.2-1.2,0.7-2,1.3-2.3c0.7-0.3,2.1-0.4,4.3-0.4c1.4,0,2.3,0.2,2.7,0.5
		C356.9,191.7,357.3,192.6,357.6,194z"/>
	<path fill="#FFFFFF" d="M374.9,203.5h-3.3c-0.9,0-1.5-0.1-1.8-0.3c-0.3-0.2-0.4-0.8-0.4-1.8v-6c0-1.1,0.1-1.8,0.4-2.2
		c0.3-0.3,1-0.6,2.2-0.8c4-0.6,8.1-2.8,12.1-6.7c4.1-3.8,6.5-8,7.3-12.4c0.3-1.6,0.6-2.5,1-2.9c0.4-0.4,1.3-0.5,2.6-0.5h5.4
		c1.4,0,2.2,1,2.2,2.9v19.2h5.2c2,0,2.9,0.9,2.9,2.8v6c0,1.8-1,2.7-2.9,2.7h-5.2v86.7c0,3,1.3,5.1,3.9,6.4c1.3,0.6,2.1,1.4,2.5,2.3
		c0.4,0.9,0.6,2.5,0.6,4.9c0,1.5-0.1,2.3-0.3,2.4c-0.2,0.2-0.9,0.3-2,0.3h-26.4c-4-3.6-6-9-6-16.1V203.5z"/>
	<path fill="#FFFFFF" d="M457,225.3v-16.1c0-4.5-1.8-6.7-5.4-6.7c-5,0-7.4,3.4-7.4,10.1c0,3.8-0.4,6.5-1.3,8.1
		c-0.9,1.6-2.8,3-5.9,4.1c-3,1.1-6.3,1.7-9.7,1.7c-7.1,0-10.6-3.8-10.6-11.4c0-7.1,3.1-13,9.2-17.5c6.2-4.5,14.2-6.8,24.1-6.8
		c6.5,0,12.4,0.9,17.6,2.7c5.2,1.8,9.4,4.8,12.5,9c3.1,4.2,4.7,8.9,4.7,14v76.3c0.1,0.4,0.9,1.2,2.5,2.5c1.1,0.8,1.7,2.1,1.7,3.7
		c0,2.2-0.3,3.8-0.9,4.7c-0.6,0.9-2.1,1.8-4.5,2.6c-2.4,0.8-5.3,1.2-8.9,1.2c-4.3,0-8-0.8-10.9-2.4c-2.9-1.6-5.2-4.7-6.8-9.3
		c-4.9,5-8.8,8.2-11.8,9.6s-6.1,2.1-9.3,2.1c-7.1,0-12.5-2.8-16.4-8.3c-3.9-5.5-5.8-14.6-5.8-27.2c0-12.6,1.8-21.3,5.4-26.2
		c3.6-4.9,10.7-9.4,21.2-13.5C447,229.8,452.6,227.4,457,225.3z M457,236.2c-6.3,2.8-10.1,5.9-11.3,9.4c-1.2,3.5-1.8,11.3-1.8,23.5
		c0,9,0.5,14.6,1.5,17c1,2.4,2.7,3.5,5.2,3.5c4.3,0,6.4-3.6,6.4-10.7V236.2z"/>
	<path fill="#FFFFFF" d="M539.8,194l4.6,23.2c0.1,0.7,0.2,1.4,0.2,1.9c0,1.6-1.5,2.3-4.5,2.3c-2,0-3.5-0.3-4.4-0.8s-2-1.8-3.1-4
		c-1.3-2.6-3.4-5.6-6.1-9.1c-2.7-3.5-5.2-5.3-7.4-5.3c-0.8,0-1.6,0.4-2.2,1.2c-0.6,0.8-1,1.7-1,2.8c0,2.8,4.1,10.9,12.2,24.2
		c7,11.5,11.8,20.6,14.3,27.2c2.5,6.6,3.8,14,3.8,22.2c0,8.7-1.9,15.6-5.7,20.4c-3.8,4.9-8.3,7.3-13.4,7.3c-3.2,0-6.6-1.2-10.2-3.5
		c-2-1.3-3.3-1.9-3.9-1.9c-0.8,0-1.2,0.6-1.3,1.9c-0.2,1.5-0.6,2.5-1,2.9c-0.4,0.4-1.9,0.6-4.4,0.6c-1.9,0-3.1-0.3-3.7-0.8
		c-0.6-0.6-0.9-1.5-1.2-2.9l-4.2-23.3c-0.2-1.1-0.3-1.8-0.3-2.1c0-1.6,1.9-2.3,5.6-2.3c2,0,3.3,0.3,4.1,0.8c0.8,0.5,1.7,2,2.9,4.3
		c4.3,9.1,8.5,13.6,12.4,13.6c2.5,0,3.8-1.5,3.8-4.5c0-2.7-0.9-6-2.8-9.9c-1.9-4-5.5-10.4-10.9-19.5c-5.7-9.6-9.8-17.6-12.3-24.1
		c-2.5-6.5-3.8-13-3.8-19.5c0-8.9,1.9-15.5,5.7-19.8c3.8-4.3,8.4-6.5,13.8-6.5c2.8,0,6.1,1,9.7,2.9c1.8,1,3.1,1.5,3.8,1.5
		c0.9,0,1.4-0.6,1.6-1.8c0.2-1.2,0.7-2,1.3-2.3c0.7-0.3,2.1-0.4,4.3-0.4c1.4,0,2.3,0.2,2.7,0.5C539.1,191.7,539.5,192.6,539.8,194z"
		/>
	<path fill="#FFFFFF" d="M145.4,371.4h-8.1v-39h8.1V371.4z"/>
	<path fill="#FFFFFF" d="M181.4,332.4v6.9h-11.7v32.1h-8.2v-32.1h-11.7v-6.9H181.4z"/>
	<path fill="#FFFFFF" d="M205,336.5c3.1-3.2,7.1-4.8,12-4.8c6.5,0,11.2,2.2,14.2,6.5c1.7,2.4,2.5,4.8,2.7,7.3h-8.2
		c-0.5-1.9-1.2-3.3-2-4.2c-1.5-1.7-3.6-2.5-6.5-2.5c-2.9,0-5.2,1.2-6.9,3.6s-2.5,5.8-2.5,10.2s0.9,7.7,2.7,9.8
		c1.8,2.2,4,3.3,6.7,3.3c2.8,0,4.9-0.9,6.4-2.8c0.8-1,1.5-2.5,2-4.5h8.1c-0.7,4.3-2.5,7.7-5.4,10.4s-6.6,4-11,4
		c-5.6,0-9.9-1.8-13.1-5.4c-3.2-3.6-4.8-8.6-4.8-14.9C199.5,345.4,201.4,340.2,205,336.5z"/>
	<path fill="#FFFFFF" d="M263.9,367.9c-2.4,3-6.1,4.5-11.1,4.5s-8.7-1.5-11.1-4.5c-2.4-3-3.7-6.6-3.7-10.9c0-4.2,1.2-7.8,3.7-10.8
		s6.1-4.6,11.1-4.6s8.7,1.5,11.1,4.6s3.7,6.7,3.7,10.8C267.5,361.3,266.3,364.9,263.9,367.9z M257.8,363.7c1.2-1.6,1.8-3.8,1.8-6.7
		c0-2.9-0.6-5.1-1.8-6.7c-1.2-1.6-2.9-2.3-5.1-2.3c-2.2,0-3.9,0.8-5.1,2.3c-1.2,1.6-1.8,3.8-1.8,6.7c0,2.9,0.6,5.1,1.8,6.7
		c1.2,1.6,2.9,2.4,5.1,2.4C254.9,366.1,256.6,365.3,257.8,363.7z"/>
	<path fill="#FFFFFF" d="M308.9,342.7c1.2,0.5,2.4,1.4,3.4,2.6c0.8,1,1.4,2.2,1.6,3.7c0.2,1,0.3,2.4,0.3,4.3l-0.1,18.2h-7.7V353
		c0-1.1-0.2-2-0.5-2.7c-0.7-1.3-1.9-2-3.7-2c-2.1,0-3.5,0.9-4.3,2.6c-0.4,0.9-0.6,2-0.6,3.3v17.2h-7.6v-17.2c0-1.7-0.2-3-0.5-3.7
		c-0.6-1.4-1.9-2.1-3.7-2.1c-2.2,0-3.6,0.7-4.3,2.1c-0.4,0.8-0.6,2-0.6,3.5v17.4h-7.7v-28.8h7.3v4.2c0.9-1.5,1.8-2.6,2.6-3.2
		c1.5-1.1,3.4-1.7,5.7-1.7c2.2,0,4,0.5,5.3,1.5c1.1,0.9,1.9,2.1,2.5,3.5c1-1.7,2.2-2.9,3.7-3.7c1.6-0.8,3.3-1.2,5.2-1.2
		C306.4,341.9,307.7,342.2,308.9,342.7z"/>
	<path fill="#FFFFFF" d="M345.4,345.7c2.4,2.5,3.5,6.1,3.5,11c0,5.1-1.2,9-3.5,11.6c-2.3,2.7-5.3,4-8.9,4c-2.3,0-4.2-0.6-5.8-1.7
		c-0.8-0.6-1.7-1.6-2.5-2.8v15h-7.5v-40.2h7.2v4.3c0.8-1.3,1.7-2.2,2.6-3c1.7-1.3,3.7-1.9,6-1.9C340.2,341.9,343,343.2,345.4,345.7z
		 M339.6,351.1c-1-1.7-2.7-2.6-5-2.6c-2.8,0-4.7,1.3-5.7,3.9c-0.5,1.4-0.8,3.1-0.8,5.2c0,3.4,0.9,5.7,2.7,7.1
		c1.1,0.8,2.3,1.2,3.8,1.2c2.1,0,3.7-0.8,4.9-2.4c1.1-1.6,1.7-3.8,1.7-6.5C341.1,354.8,340.6,352.8,339.6,351.1z"/>
	<path fill="#FFFFFF" d="M365.7,353.9c1.4-0.2,2.4-0.4,3-0.7c1.1-0.5,1.6-1.2,1.6-2.1c0-1.2-0.4-2-1.2-2.4s-2.1-0.7-3.7-0.7
		c-1.8,0-3.1,0.4-3.8,1.3c-0.5,0.7-0.9,1.5-1.1,2.6h-7.3c0.2-2.5,0.9-4.6,2.1-6.2c2-2.5,5.4-3.8,10.3-3.8c3.2,0,6,0.6,8.5,1.9
		c2.5,1.3,3.7,3.6,3.7,7.1v13.2c0,0.9,0,2,0.1,3.3c0.1,1,0.2,1.7,0.4,2c0.2,0.4,0.6,0.6,1.1,0.9v1.1h-8.2c-0.2-0.6-0.4-1.1-0.5-1.6
		c-0.1-0.5-0.2-1.1-0.2-1.7c-1,1.1-2.3,2.1-3.6,2.9c-1.6,0.9-3.5,1.4-5.5,1.4c-2.6,0-4.8-0.7-6.5-2.2s-2.6-3.6-2.6-6.3
		c0-3.5,1.4-6.1,4.1-7.7c1.5-0.9,3.7-1.5,6.7-1.9L365.7,353.9z M370.3,357.4c-0.5,0.3-1,0.5-1.5,0.7s-1.2,0.4-2,0.5l-1.7,0.3
		c-1.6,0.3-2.8,0.6-3.5,1c-1.2,0.7-1.8,1.8-1.8,3.2c0,1.3,0.4,2.2,1.1,2.8c0.7,0.6,1.6,0.9,2.6,0.9c1.6,0,3.2-0.5,4.6-1.4
		c1.4-1,2.1-2.7,2.2-5.2V357.4z"/>
	<path fill="#FFFFFF" d="M407.7,344.2c1.9,1.6,2.8,4.2,2.8,7.8v19.4h-7.7v-17.6c0-1.5-0.2-2.7-0.6-3.5c-0.7-1.5-2.1-2.2-4.2-2.2
		c-2.5,0-4.3,1.1-5.2,3.3c-0.5,1.1-0.7,2.6-0.7,4.4v15.6h-7.5v-28.8h7.3v4.2c1-1.5,1.9-2.5,2.7-3.2c1.5-1.2,3.5-1.7,5.9-1.7
		C403.3,341.9,405.8,342.7,407.7,344.2z"/>
	<path fill="#FFFFFF" d="M418.6,376.9l1,0.1c0.7,0,1.4,0,2.1-0.1c0.7-0.1,1.2-0.3,1.7-0.6c0.4-0.3,0.9-0.9,1.2-1.9s0.5-1.5,0.5-1.7
		l-10.6-30.1h8.4l6.3,21.3l6-21.3h8l-9.9,28.4c-1.9,5.5-3.4,8.9-4.5,10.2s-3.3,2-6.7,2c-0.7,0-1.2,0-1.6,0c-0.4,0-1,0-1.8-0.1V376.9
		z"/>
</g>
</svg>
