<?xml version="1.0" encoding="utf-8"?>
<!-- Generator: Adobe Illustrator 18.1.0, SVG Export Plug-In . SVG Version: 6.00 Build 0)  -->
<!DOCTYPE svg PUBLIC "-//W3C//DTD SVG 1.1//EN" "http://www.w3.org/Graphics/SVG/1.1/DTD/svg11.dtd">
<svg version="1.1" id="Layer_1" xmlns="http://www.w3.org/2000/svg" xmlns:xlink="http://www.w3.org/1999/xlink" x="0px" y="0px"
	 viewBox="0 0 576 576" enable-background="new 0 0 576 576" xml:space="preserve">
<circle fill="#3B569D" cx="288.9" cy="288.5" r="288"/>
<rect x="202.6" y="141" fill="#FFFFFF" width="257.4" height="326.7"/>
<rect x="293.5" y="212.6" fill="#FFFFFF" width="63.5" height="352.3"/>
<path fill="#3B569D" d="M293.5,502.3c-5.4,0.4-9.1,0.9-12.8,0.9c-56.2,0-112.4,0-168.7-0.1c-19.4,0-25.2-5.7-25.2-24.6
	c-0.1-112.4,0-224.9,0-337.3c0-18.5,6.2-25.3,25-25.3c112.9-0.2,225.8-0.1,338.8,0.1c17.7,0,24.9,8.2,24.9,26.1
	c0,112,0,223.9-0.1,335.9c0,18.3-7.1,25.2-25.2,25.2c-30.7,0-61.4,0-93.2,0c0-49.7,0-98.3,0-148.7c16.9,0,32.9,0,50.1,0
	c2.6-20.3,5-39.1,7.7-60.5c-20,0-38.4,0-58.1,0c0-16.5-0.8-30.8,0.2-45c1-12.6,10.2-17.8,22-18.5c9.6-0.5,19.3,0.5,28.8-0.8
	c3.7-0.5,9.5-5.2,9.7-8.3c1-15.2,0.5-30.5,0.5-47.1c-24.2,0-46.8-2.3-68.7,0.5c-31.4,4-54,32.9-55.2,66.3c-0.6,16.7-0.1,33.4-0.1,52
	c-14.6,0-27.4,0.3-40.2-0.1c-8.7-0.3-12,3-11.7,11.8c0.5,15.7,0.1,31.5,0.1,49c17.3,0,33.4,0,51.6,0c0,26,0,50.3,0,74.7
	C293.5,452.6,293.5,476.6,293.5,502.3z"/>
<path fill="#FFFFFF" d="M293.5,564.9v11.7c0,0,32.9,0,63.5-8.1v-3.6"/>
</svg>
