<?xml version="1.0" encoding="utf-8"?>
<!-- Generator: Adobe Illustrator 18.1.0, SVG Export Plug-In . SVG Version: 6.00 Build 0)  -->
<!DOCTYPE svg PUBLIC "-//W3C//DTD SVG 1.1//EN" "http://www.w3.org/Graphics/SVG/1.1/DTD/svg11.dtd">
<svg version="1.1" id="Layer_1" xmlns="http://www.w3.org/2000/svg" xmlns:xlink="http://www.w3.org/1999/xlink" x="0px" y="0px"
	 viewBox="0 0 576 576" enable-background="new 0 0 576 576" xml:space="preserve">
<circle fill="#D8C598" cx="288.5" cy="287.5" r="287.5"/>
<path fill="#E3DCC8" d="M0.9,288.5"/>
<path fill="#E3DCC8" d="M288.9,576.5"/>
<path fill="#7C5641" d="M0,277.6"/>
<path fill="#E3DCC8" d="M454.6,466.1H127.1c-6.6,0-12-5.4-12-12V125.6c0-6.6,5.4-12,12-12h327.5c6.6,0,12,5.4,12,12v328.5
	C466.6,460.7,461.2,466.1,454.6,466.1z"/>
<path fill="#7C5641" d="M454.6,291.8H126.1c-6.6,0-12-5.4-12-12V125.6c0-6.6,5.4-12,12-12h328.5c6.6,0,12,5.4,12,12v154.2
	C466.6,286.4,461.2,291.8,454.6,291.8z"/>
<circle fill="#090909" cx="297.1" cy="270.8" r="79.5"/>
<circle fill="#1A1A1A" cx="297.1" cy="270.8" r="54.7"/>
<circle fill="#32332E" cx="297.1" cy="272.8" r="27.3"/>
<rect x="143" y="113.6" fill="#EC3D54" width="12" height="66.4"/>
<rect x="155" y="113.6" fill="#FAD53C" width="12" height="66.4"/>
<rect x="167" y="113.6" fill="#7BC99F" width="12" height="66.4"/>
<rect x="179" y="113.6" fill="#5C78B5" width="12" height="66.4"/>
<path fill="#090909" d="M440,183.3h-40c-6.6,0-12-5.4-12-12v-40c0-6.6,5.4-12,12-12h40c6.6,0,12,5.4,12,12v40
	C452,177.9,446.6,183.3,440,183.3z"/>
<path fill="#1A1A1A" d="M431.3,173.5h-22c-6.6,0-12-5.4-12-12v-22c0-6.6,5.4-12,12-12h22c6.6,0,12,5.4,12,12v22
	C443.3,168.1,437.9,173.5,431.3,173.5z"/>
<path fill="#32332E" d="M426.1,169.5h-12.2c-6.6,0-12-5.4-12-12v-12.2c0-6.6,5.4-12,12-12h12.2c6.6,0,12,5.4,12,12v12.2
	C438.1,164.1,432.7,169.5,426.1,169.5z"/>
</svg>
