<?xml version="1.0" encoding="utf-8"?>
<!-- Generator: Adobe Illustrator 18.1.0, SVG Export Plug-In . SVG Version: 6.00 Build 0)  -->
<!DOCTYPE svg PUBLIC "-//W3C//DTD SVG 1.1//EN" "http://www.w3.org/Graphics/SVG/1.1/DTD/svg11.dtd">
<svg version="1.1" id="Layer_1" xmlns="http://www.w3.org/2000/svg" xmlns:xlink="http://www.w3.org/1999/xlink" x="0px" y="0px"
	 viewBox="0 0 147.9 205.8" enable-background="new 0 0 147.9 205.8" xml:space="preserve">
<path d="M135.9,73.1H12c-6.6,0-12,5.4-12,12v108.6c0,6.6,5.4,12,12,12h123.9c6.6,0,12-5.4,12-12V85.1
	C147.9,78.5,142.5,73.1,135.9,73.1z M82.2,153v37c0,4.5-3.7,8.1-8.1,8.1S66,194.5,66,190v-36.9c-7.6-3.1-12.9-10.6-12.9-19.3
	c0-11.5,9.3-20.8,20.8-20.8s20.8,9.3,20.8,20.8C94.8,142.5,89.6,149.8,82.2,153z"/>
<path fill="none" stroke="#000000" stroke-width="18" stroke-miterlimit="10" d="M19.2,79.2C19.2,79.2,16.2,9,74,9
	s54.8,70.2,54.8,70.2"/>
</svg>
