<?xml version="1.0" encoding="utf-8"?>
<!-- Generator: Adobe Illustrator 18.1.0, SVG Export Plug-In . SVG Version: 6.00 Build 0)  -->
<!DOCTYPE svg PUBLIC "-//W3C//DTD SVG 1.1//EN" "http://www.w3.org/Graphics/SVG/1.1/DTD/svg11.dtd">
<svg version="1.1" id="Layer_1" xmlns="http://www.w3.org/2000/svg" xmlns:xlink="http://www.w3.org/1999/xlink" x="0px" y="0px"
	 viewBox="0 0 576 576" enable-background="new 0 0 576 576" xml:space="preserve">
<circle fill="#FC4479" cx="288" cy="288" r="288"/>
<path fill="#F9C648" d="M432.4,192.7h-277c-14.8,0-26.8,12.1-26.8,26.8v242.8c0,14.8,12.1,26.8,26.8,26.8h277
	c14.8,0,26.8-12.1,26.8-26.8V219.5C459.2,204.7,447.1,192.7,432.4,192.7z M312.3,371.3V454c0,10.1-8.3,18.1-18.1,18.1
	c-9.8,0-18.1-8-18.1-18.1v-82.5c-17-6.9-28.8-23.7-28.8-43.2c0-25.7,20.8-46.5,46.5-46.5s46.5,20.8,46.5,46.5
	C340.5,347.8,328.9,364.1,312.3,371.3z"/>
<path fill="none" stroke="#F9C648" stroke-width="39" stroke-miterlimit="10" d="M171.5,206.3c0,0-6.7-157,122.5-157
	s122.5,157,122.5,157"/>
</svg>
