<?xml version="1.0" encoding="utf-8"?>
<!-- Generator: Adobe Illustrator 18.1.0, SVG Export Plug-In . SVG Version: 6.00 Build 0)  -->
<!DOCTYPE svg PUBLIC "-//W3C//DTD SVG 1.1//EN" "http://www.w3.org/Graphics/SVG/1.1/DTD/svg11.dtd">
<svg version="1.1" id="Layer_1" xmlns="http://www.w3.org/2000/svg" xmlns:xlink="http://www.w3.org/1999/xlink" x="0px" y="0px"
	 viewBox="0 0 576 576" enable-background="new 0 0 576 576" xml:space="preserve">
<path fill="#F3C0FC" d="M657.1,703.6h-810c-6.6,0-12-5.4-12-12v-780c0-6.6,5.4-12,12-12h810c6.6,0,12,5.4,12,12v780
	C669.1,698.2,663.7,703.6,657.1,703.6z"/>
<g>
	<path fill="#FFFFFF" d="M159.3,164.4h18l32.6,57.2v-57.2h16v82h-17.1l-33.4-58.2v58.2h-16V164.4z"/>
	<path fill="#FFFFFF" d="M260.1,209.6c3-0.4,5.1-0.8,6.3-1.4c2.3-1,3.4-2.5,3.4-4.5c0-2.5-0.9-4.2-2.6-5.1s-4.3-1.4-7.7-1.4
		c-3.8,0-6.5,0.9-8.1,2.8c-1.1,1.4-1.9,3.2-2.3,5.6h-15.3c0.3-5.3,1.8-9.7,4.5-13.1c4.2-5.3,11.4-8,21.7-8c6.7,0,12.6,1.3,17.8,4
		c5.2,2.6,7.8,7.6,7.8,14.9v27.8c0,1.9,0,4.3,0.1,7c0.1,2.1,0.4,3.5,0.9,4.2c0.5,0.7,1.3,1.4,2.3,1.8v2.3h-17.3
		c-0.5-1.2-0.8-2.4-1-3.5c-0.2-1.1-0.3-2.3-0.4-3.7c-2.2,2.4-4.7,4.4-7.6,6.1c-3.4,2-7.3,3-11.6,3c-5.5,0-10.1-1.6-13.7-4.7
		c-3.6-3.1-5.4-7.6-5.4-13.3c0-7.5,2.9-12.9,8.7-16.2c3.2-1.8,7.9-3.1,14-3.9L260.1,209.6z M269.8,217c-1,0.6-2,1.1-3.1,1.5
		c-1,0.4-2.5,0.8-4.3,1.1l-3.6,0.7c-3.4,0.6-5.8,1.3-7.3,2.2c-2.5,1.4-3.7,3.7-3.7,6.7c0,2.7,0.8,4.7,2.3,5.9
		c1.5,1.2,3.4,1.8,5.6,1.8c3.5,0,6.7-1,9.6-3c2.9-2,4.4-5.7,4.5-11V217z"/>
	<path fill="#FFFFFF" d="M298.3,198.7v-12.9h48V199l-29.8,34.5h30.8v13h-51.2v-12.4l30.1-35.4H298.3z"/>
	<path fill="#FFFFFF" d="M370.5,178.6h-16.1v-14.6h16.1V178.6z M354.4,185.8h16.1v60.7h-16.1V185.8z"/>
	<path fill="#FFFFFF" d="M412.7,184.4c0.2,0,0.7,0,1.4,0.1v16.3c-1-0.1-1.9-0.2-2.7-0.2c-0.8,0-1.4-0.1-1.9-0.1
		c-6.4,0-10.7,2.1-12.9,6.2c-1.2,2.3-1.8,5.9-1.8,10.8v29h-16v-60.7H394v10.6c2.4-4,4.6-6.8,6.4-8.3c3-2.5,6.8-3.7,11.6-3.7
		C412.3,184.4,412.5,184.4,412.7,184.4z"/>
	<path fill="#FFFFFF" d="M51.7,275.8c6.6-6.8,15-10.1,25.2-10.1c13.7,0,23.6,4.5,30,13.6c3.5,5.1,5.4,10.2,5.6,15.3H95.3
		c-1.1-3.9-2.5-6.9-4.2-8.9c-3.1-3.6-7.6-5.3-13.6-5.3c-6.1,0-10.9,2.5-14.5,7.5c-3.5,5-5.3,12.1-5.3,21.3c0,9.2,1.9,16.1,5.6,20.7
		s8.4,6.9,14.2,6.9c5.9,0,10.4-2,13.4-5.9c1.7-2.1,3.1-5.3,4.2-9.5h17c-1.5,8.9-5.2,16.2-11.3,21.8c-6,5.6-13.8,8.4-23.2,8.4
		c-11.7,0-20.9-3.8-27.5-11.4c-6.7-7.6-10-18-10-31.3C40.3,294.6,44.1,283.6,51.7,275.8z"/>
	<path fill="#FFFFFF" d="M173.2,341.9c-5.1,6.3-12.9,9.5-23.3,9.5c-10.4,0-18.2-3.2-23.3-9.5c-5.1-6.3-7.7-13.9-7.7-22.8
		c0-8.8,2.6-16.3,7.7-22.7c5.1-6.4,12.9-9.6,23.3-9.6c10.4,0,18.2,3.2,23.3,9.6c5.1,6.4,7.7,14,7.7,22.7
		C180.9,327.9,178.3,335.5,173.2,341.9z M160.5,333.1c2.5-3.3,3.7-8,3.7-14.1s-1.2-10.8-3.7-14c-2.5-3.3-6-4.9-10.7-4.9
		c-4.6,0-8.2,1.6-10.7,4.9c-2.5,3.3-3.8,8-3.8,14s1.3,10.8,3.8,14.1c2.5,3.3,6.1,4.9,10.7,4.9C154.5,338,158,336.4,160.5,333.1z"/>
	<path fill="#FFFFFF" d="M263.4,288.8c2.6,1,5,2.9,7.1,5.5c1.7,2.1,2.9,4.7,3.5,7.8c0.4,2,0.6,5,0.6,9l-0.1,38.2h-16.3v-38.6
		c0-2.3-0.4-4.2-1.1-5.7c-1.4-2.8-4-4.2-7.8-4.2c-4.4,0-7.4,1.8-9.1,5.5c-0.9,1.9-1.3,4.2-1.3,7v36.1h-16v-36.1
		c0-3.6-0.4-6.2-1.1-7.8c-1.3-2.9-4-4.4-7.8-4.4c-4.5,0-7.6,1.5-9.1,4.4c-0.9,1.7-1.3,4.2-1.3,7.5v36.5h-16.1v-60.6h15.4v8.9
		c2-3.2,3.8-5.4,5.6-6.7c3.1-2.4,7.1-3.6,12-3.6c4.6,0,8.4,1,11.2,3.1c2.3,1.9,4,4.3,5.2,7.3c2.1-3.6,4.7-6.2,7.7-7.8
		c3.3-1.7,6.9-2.5,10.9-2.5C258.2,287.3,260.8,287.8,263.4,288.8z"/>
	<path fill="#FFFFFF" d="M333.2,295.1c4.9,5.2,7.4,12.9,7.4,23c0,10.7-2.4,18.8-7.3,24.4c-4.8,5.6-11.1,8.4-18.7,8.4
		c-4.9,0-8.9-1.2-12.1-3.6c-1.8-1.3-3.5-3.3-5.2-5.8v31.6h-15.7v-84.6H297v9c1.7-2.6,3.5-4.7,5.5-6.2c3.5-2.7,7.8-4.1,12.7-4.1
		C322.2,287.3,328.3,289.9,333.2,295.1z M321.1,306.5c-2.2-3.6-5.7-5.4-10.5-5.4c-5.8,0-9.8,2.7-12,8.2c-1.1,2.9-1.7,6.6-1.7,11
		c0,7.1,1.9,12,5.7,14.9c2.2,1.7,4.9,2.5,8,2.5c4.5,0,7.9-1.7,10.2-5.1c2.3-3.4,3.5-8,3.5-13.6C324.3,314.3,323.2,310.1,321.1,306.5
		z"/>
	<path fill="#FFFFFF" d="M373.6,312.4c3-0.4,5.1-0.8,6.3-1.4c2.3-1,3.4-2.5,3.4-4.5c0-2.5-0.9-4.2-2.6-5.1s-4.3-1.4-7.7-1.4
		c-3.8,0-6.5,0.9-8.1,2.8c-1.1,1.4-1.9,3.2-2.3,5.6h-15.3c0.3-5.3,1.8-9.7,4.5-13.1c4.2-5.3,11.4-8,21.7-8c6.7,0,12.6,1.3,17.8,4
		c5.2,2.6,7.8,7.6,7.8,14.9v27.8c0,1.9,0,4.3,0.1,7c0.1,2.1,0.4,3.5,0.9,4.2c0.5,0.7,1.3,1.4,2.3,1.8v2.3h-17.3
		c-0.5-1.2-0.8-2.4-1-3.5c-0.2-1.1-0.3-2.3-0.4-3.7c-2.2,2.4-4.7,4.4-7.6,6.1c-3.4,2-7.3,3-11.6,3c-5.5,0-10.1-1.6-13.7-4.7
		c-3.6-3.1-5.4-7.6-5.4-13.3c0-7.5,2.9-12.9,8.7-16.2c3.2-1.8,7.9-3.1,14-3.9L373.6,312.4z M383.3,319.8c-1,0.6-2,1.1-3.1,1.5
		c-1,0.4-2.5,0.8-4.3,1.1l-3.6,0.7c-3.4,0.6-5.8,1.3-7.3,2.2c-2.5,1.4-3.7,3.7-3.7,6.7c0,2.7,0.8,4.7,2.3,5.9s3.4,1.8,5.6,1.8
		c3.5,0,6.7-1,9.6-3c2.9-2,4.4-5.7,4.5-11V319.8z"/>
	<path fill="#FFFFFF" d="M459.6,292.1c4,3.3,6,8.7,6,16.3v40.9h-16.3v-36.9c0-3.2-0.4-5.6-1.3-7.3c-1.5-3.1-4.5-4.7-8.8-4.7
		c-5.3,0-9,2.3-11,6.8c-1,2.4-1.5,5.5-1.5,9.2v32.8h-15.9v-60.6h15.4v8.9c2-3.1,4-5.4,5.8-6.7c3.3-2.4,7.4-3.7,12.4-3.7
		C450.5,287.2,455.6,288.8,459.6,292.1z"/>
	<path fill="#FFFFFF" d="M478.2,360.9l2,0.1c1.6,0.1,3,0,4.5-0.2c1.4-0.2,2.6-0.6,3.6-1.3c0.9-0.6,1.8-1.9,2.6-4
		c0.8-2,1.1-3.2,1-3.7l-22.3-63.3h17.6l13.2,44.8l12.5-44.8h16.9L509,348.3c-4,11.5-7.2,18.6-9.5,21.4c-2.3,2.8-7,4.1-14,4.1
		c-1.4,0-2.5,0-3.4,0c-0.9,0-2.1-0.1-3.8-0.2V360.9z"/>
</g>
</svg>
