<?xml version="1.0" encoding="utf-8"?>
<!-- Generator: Adobe Illustrator 18.1.0, SVG Export Plug-In . SVG Version: 6.00 Build 0)  -->
<!DOCTYPE svg PUBLIC "-//W3C//DTD SVG 1.1//EN" "http://www.w3.org/Graphics/SVG/1.1/DTD/svg11.dtd">
<svg version="1.1" id="Layer_1" xmlns="http://www.w3.org/2000/svg" xmlns:xlink="http://www.w3.org/1999/xlink" x="0px" y="0px"
	 viewBox="0 0 576 576" enable-background="new 0 0 576 576" xml:space="preserve">
<circle fill="#8C46F9" cx="288.9" cy="288.5" r="288"/>
<path fill="#4DF450" d="M370.7,120.6c21.4,15.2,41.1,31.8,59.4,50.5c-1.2,1.4-2.2,2.5-3.1,3.7c-20.7,24.3-41.5,48.5-61.9,73.1
	c-4.6,5.5-8.3,12.2-10.7,19c-7.1,19.8,0.1,39.6,18.1,52.2c22.1,15.5,47.1,12.3,65.1-8.6c16.2-18.8,32.2-37.8,48.3-56.7
	c0.9-1.1,1.8-2.1,2.7-3.1c0.4,0.1,0.7,0.1,0.8,0.3c11.2,21.7,19.7,44.2,20.2,69c0.3,17.2-3.9,32.9-16.7,45.3
	c-10,9.8-22.5,14.4-36.1,16.3c-21.8,3.1-42.9-0.5-63.7-6.6c-31.6-9.3-60.5-24.3-87.7-42.6c-22.9-15.3-44.2-32.7-63.6-52.2
	c-30.4-30.6-56.4-64.3-72.5-104.8c-7.3-18.4-12.1-37.4-9.9-57.5c3.1-28.7,21.6-47.2,51.6-51.5c22.2-3.2,43.6,0.6,64.8,6.7
	c2.4,0.7,4.8,1.5,7.5,2.4c-1.2,1.4-2.1,2.4-3,3.5c-15.9,18.7-32.1,37.3-47.6,56.3c-4.5,5.6-8.3,12.2-10.7,19
	c-7.2,20-0.2,39.5,17.8,52.3c21.9,15.5,46.9,12.6,64.5-7.9c21.1-24.6,42-49.4,63-74.1C368.4,123.3,369.4,122.1,370.7,120.6z"/>
<path fill="#4DF450" d="M462.6,394.1c-12.3,9.7-24.5,17.8-37.6,24.8c-30.8,16.5-63.7,25.6-99.7,23.8c-31-1.6-59.9-11.1-86.9-27.1
	c-36.7-21.6-68-49.3-91.7-84.8c-30-45-37.7-93.2-26-144c4.9-21.2,13-41.1,23.2-60.1c0.3-0.5,0.6-1,1.4-2.3
	c-0.7,18.3,3.1,35.1,9.2,51.7c9.4,25.2,23.3,48.1,39.5,69.7c22.9,30.4,49.9,56.8,79.9,80.1c34.2,26.6,71.1,48.3,112.4,61.4
	c22,7,44.3,11,67.2,8.3C456.3,395.2,458.9,394.7,462.6,394.1z"/>
<path fill="#4DF450" d="M273.5,100.7c11.2-13.2,22.4-26.5,33.8-39.6c3.2-3.7,6.9-7.1,11-9.8C334,41,350.5,43,364.7,55.9
	c20.4,18.5,14.9,40,2.7,54.8c-22.7,27.4-46,54.4-69.1,81.4c-4.8,5.6-10.8,9.9-17.7,12.7c-12.5,5.2-24.1,2.9-34.7-5
	c-4.1-3.1-8-6.8-11-10.8c-9.8-13-8.5-26.7-1.1-40.2c1.6-3,3.7-5.7,5.9-8.3C250.9,127.1,262.2,113.9,273.5,100.7z"/>
<path fill="#4DF450" d="M465.1,264.1c-11.2,13.2-22.4,26.5-33.8,39.6c-3.1,3.6-6.7,7-10.7,9.6c-19.5,12.8-36.8,6.6-50.5-8.2
	c-16.4-17.8-9.9-37.8,1.1-51c22.7-27.4,46-54.3,69.1-81.4c4.8-5.6,10.8-9.9,17.7-12.7c15-6,27.9-1.7,39.1,8.7
	c16.9,15.7,18,35.8,3.4,53.8c-0.2,0.3-0.5,0.6-0.7,0.9C488.2,236.9,476.6,250.5,465.1,264.1z"/>
<path fill="#4DF450" d="M139.9,489.3l-30.9-28c-4.9-4.4-5.3-12.1-0.8-16.9l52.5-58c4.4-4.9,12.1-5.3,16.9-0.8l30.9,28
	c4.9,4.4,5.3,12.1,0.8,16.9l-52.5,58C152.4,493.4,144.8,493.7,139.9,489.3z"/>
</svg>
