<?xml version="1.0" encoding="utf-8"?>
<!-- Generator: Adobe Illustrator 18.1.0, SVG Export Plug-In . SVG Version: 6.00 Build 0)  -->
<!DOCTYPE svg PUBLIC "-//W3C//DTD SVG 1.1//EN" "http://www.w3.org/Graphics/SVG/1.1/DTD/svg11.dtd">
<svg version="1.1" id="Layer_1" xmlns="http://www.w3.org/2000/svg" xmlns:xlink="http://www.w3.org/1999/xlink" x="0px" y="0px"
	 viewBox="0 0 576 576" enable-background="new 0 0 576 576" xml:space="preserve">
<rect x="-16" y="77" fill="#98A7B7" width="605" height="471"/>
<rect x="-30" y="-5" fill="#C2C2C2" width="619" height="82"/>
<rect x="-20" y="537" fill="#C2C2C2" width="619" height="82"/>
<rect x="218.5" y="159" fill="#E7EDE8" stroke="#8E8E8E" stroke-miterlimit="10" width="74.7" height="40"/>
<rect x="218.5" y="199" fill="#E7EDE8" stroke="#8E8E8E" stroke-miterlimit="10" width="74.7" height="40"/>
<rect x="218.5" y="239" fill="#E7EDE8" stroke="#8E8E8E" stroke-miterlimit="10" width="74.7" height="40"/>
<rect x="218.5" y="279" fill="#E7EDE8" stroke="#8E8E8E" stroke-miterlimit="10" width="74.7" height="40"/>
<rect x="218.5" y="319" fill="#E7EDE8" stroke="#8E8E8E" stroke-miterlimit="10" width="74.7" height="40"/>
<rect x="218.5" y="359" fill="#E7EDE8" stroke="#8E8E8E" stroke-miterlimit="10" width="74.7" height="40"/>
<rect x="218.5" y="399" fill="#E7EDE8" stroke="#8E8E8E" stroke-miterlimit="10" width="74.7" height="40"/>
<rect x="218.5" y="439" fill="#E7EDE8" stroke="#8E8E8E" stroke-miterlimit="10" width="74.7" height="40"/>
<rect x="293.2" y="199" fill="#FFFFFF" stroke="#8E8E8E" stroke-miterlimit="10" width="74.7" height="40"/>
<rect x="293.2" y="239" fill="#FFFFFF" stroke="#8E8E8E" stroke-miterlimit="10" width="74.7" height="40"/>
<rect x="293.2" y="279" fill="#FFFFFF" stroke="#8E8E8E" stroke-miterlimit="10" width="74.7" height="40"/>
<rect x="293.2" y="319" fill="#FFFFFF" stroke="#8E8E8E" stroke-miterlimit="10" width="74.7" height="40"/>
<rect x="293.2" y="359" fill="#FFFFFF" stroke="#8E8E8E" stroke-miterlimit="10" width="74.7" height="40"/>
<rect x="293.2" y="399" fill="#FFFFFF" stroke="#8E8E8E" stroke-miterlimit="10" width="74.7" height="40"/>
<rect x="293.2" y="439" fill="#FFFFFF" stroke="#8E8E8E" stroke-miterlimit="10" width="74.7" height="40"/>
<rect x="367.8" y="199" fill="#FFFFFF" stroke="#8E8E8E" stroke-miterlimit="10" width="74.7" height="40"/>
<rect x="367.8" y="239" fill="#FFFFFF" stroke="#8E8E8E" stroke-miterlimit="10" width="74.7" height="40"/>
<rect x="367.8" y="279" fill="#FFFFFF" stroke="#8E8E8E" stroke-miterlimit="10" width="74.7" height="40"/>
<rect x="367.8" y="319" fill="#FFFFFF" stroke="#8E8E8E" stroke-miterlimit="10" width="74.7" height="40"/>
<rect x="367.8" y="359" fill="#FFFFFF" stroke="#8E8E8E" stroke-miterlimit="10" width="74.7" height="40"/>
<rect x="367.8" y="399" fill="#FFFFFF" stroke="#8E8E8E" stroke-miterlimit="10" width="74.7" height="40"/>
<rect x="367.8" y="439" fill="#FFFFFF" stroke="#8E8E8E" stroke-miterlimit="10" width="74.7" height="40"/>
<rect x="442.5" y="199" fill="#FFFFFF" stroke="#8E8E8E" stroke-miterlimit="10" width="74.7" height="40"/>
<rect x="442.5" y="239" fill="#FFFFFF" stroke="#8E8E8E" stroke-miterlimit="10" width="74.7" height="40"/>
<rect x="442.5" y="279" fill="#FFFFFF" stroke="#8E8E8E" stroke-miterlimit="10" width="74.7" height="40"/>
<rect x="442.5" y="319" fill="#FFFFFF" stroke="#8E8E8E" stroke-miterlimit="10" width="74.7" height="40"/>
<rect x="442.5" y="359" fill="#FFFFFF" stroke="#8E8E8E" stroke-miterlimit="10" width="74.7" height="40"/>
<rect x="442.5" y="399" fill="#FFFFFF" stroke="#8E8E8E" stroke-miterlimit="10" width="74.7" height="40"/>
<rect x="442.5" y="439" fill="#FFFFFF" stroke="#8E8E8E" stroke-miterlimit="10" width="74.7" height="40"/>
<rect x="293.2" y="159" fill="#E7EDE8" stroke="#8E8E8E" stroke-miterlimit="10" width="74.7" height="40"/>
<rect x="367.8" y="159" fill="#E7EDE8" stroke="#8E8E8E" stroke-miterlimit="10" width="74.7" height="40"/>
<rect x="442.5" y="159" fill="#E7EDE8" stroke="#8E8E8E" stroke-miterlimit="10" width="74.7" height="40"/>
<rect x="-27" y="73" fill="#C2C2C2" width="138" height="505"/>
</svg>
