<?xml version="1.0" encoding="utf-8"?>
<!-- Generator: Adobe Illustrator 18.1.0, SVG Export Plug-In . SVG Version: 6.00 Build 0)  -->
<!DOCTYPE svg PUBLIC "-//W3C//DTD SVG 1.1//EN" "http://www.w3.org/Graphics/SVG/1.1/DTD/svg11.dtd">
<svg version="1.1" id="Layer_1" xmlns="http://www.w3.org/2000/svg" xmlns:xlink="http://www.w3.org/1999/xlink" x="0px" y="0px"
	 viewBox="0 0 576 576" enable-background="new 0 0 576 576" xml:space="preserve">
<circle fill="#FC86D8" cx="288" cy="288" r="288"/>
<path fill="#FCA870" d="M294.8,499.8h-4.2c-6,0-11-4.9-11-11V146.9c0-6.1,4.9-11,11-11h4.2c6,0,11,4.9,11,11v341.9
	C305.8,494.8,300.9,499.8,294.8,499.8z"/>
<path fill="#FCA870" d="M294.8,160.7l2.8,1.6c4.1,2.3,9.3,0.9,11.6-3.1l32.5-56.7c2.3-4.1,0.9-9.3-3.1-11.6l-2.8-1.6
	c-4.1-2.3-9.3-0.9-11.6,3.1l-32.5,56.7C289.3,153.1,290.7,158.3,294.8,160.7z"/>
<path fill="#FCA870" d="M293.6,161.2l2.8-1.8c3.9-2.6,5-7.8,2.5-11.8L240.5,58c-2.6-3.9-7.8-5-11.8-2.5l-2.8,1.8
	c-3.9,2.6-5,7.8-2.5,11.8l58.4,89.7C284.4,162.6,289.7,163.7,293.6,161.2z"/>
<path fill="#FCA870" d="M294.8,315.7l2.8,1.6c4.1,2.3,9.3,0.9,11.6-3.1l23.4-40.8c2.3-4.1,0.9-9.3-3.1-11.6l-2.8-1.6
	c-4.1-2.3-9.3-0.9-11.6,3.1l-23.4,40.8C289.3,308.1,290.7,313.3,294.8,315.7z"/>
<ellipse fill="#D88150" cx="288.7" cy="217" rx="7.5" ry="11.1"/>
<ellipse fill="#D88150" cx="293.8" cy="364.2" rx="9.4" ry="13.9"/>
<circle fill="#73F99C" cx="353" cy="93.2" r="39"/>
<circle fill="#73F99C" cx="233" cy="69.2" r="39"/>
<circle fill="#73F99C" cx="351" cy="268.1" r="39"/>
</svg>
