<?xml version="1.0" encoding="utf-8"?>
<!-- Generator: Adobe Illustrator 18.1.0, SVG Export Plug-In . SVG Version: 6.00 Build 0)  -->
<!DOCTYPE svg PUBLIC "-//W3C//DTD SVG 1.1//EN" "http://www.w3.org/Graphics/SVG/1.1/DTD/svg11.dtd">
<svg version="1.1" id="Layer_1" xmlns="http://www.w3.org/2000/svg" xmlns:xlink="http://www.w3.org/1999/xlink" x="0px" y="0px"
	 viewBox="0 0 576 576" enable-background="new 0 0 576 576" xml:space="preserve">
<circle fill="#5EA9DC" cx="288.5" cy="287.5" r="287.5"/>
<path fill="#FFFFFF" d="M361.2,113.5c9.8,0,19.6,0,29.4,0c0.4,0.4,0.7,1.2,1.1,1.3c18.7,4,35.3,11.9,48.9,25.6
	c2.6,2.6,5.2,2.3,8.4,1.6c15.6-3.7,30.4-9.2,44.7-16.4c2.2-1.1,4.2-3.9,7.9-1.4c-6.7,19.3-19.5,33.8-37.3,47.1
	c18.5-1.3,33.3-7.1,50.5-12.6c-11.8,17.5-24.5,30.8-39.2,42.2c-4.5,3.5-6.5,7.1-6.4,13c0.4,21.2-1.5,42.3-6.9,62.8
	C435.5,378.8,374.1,448,270.6,476.8c-13.2,3.7-28.1,5.6-41.4,7.4c-19,0-36-0.7-55-0.7c-3.5,0.2-4.3-0.3-6.3-0.5
	c-35.2-4.9-68.5-15.8-99.3-33.6c-2.6-1.5-6-2.4-7.3-5.9c49.3,3.7,93.6-8.3,133.6-38.1c-51.7-14.1-80.1-36.3-84.1-65.5
	c12.4-0.1,25,2.1,37.6-2.4c-48.5-19.5-75.4-54.1-71.5-92.3c12.3,4.6,24.2,10.6,39.5,9.8c-3.8-3.3-6.1-5.3-8.3-7.3
	c-29.8-27.2-39.4-69.1-24-105.8c4.9-11.6,4.8-11.6,13.2-2.4c47.2,51.8,105.4,81.4,175.3,88.4c9,0.9,10.2-2,9.3-10
	c-5.4-47.9,25.1-91,71.8-102.2C356.1,115.1,359.2,116.2,361.2,113.5z"/>
</svg>
